<?xml version="1.0" standalone="no"?>
<!DOCTYPE svg PUBLIC "-//W3C//DTD SVG 1.1//EN" "http://www.w3.org/Graphics/SVG/1.1/DTD/svg11.dtd" >
<!--
2013-9-30: Created.
-->
<svg>
<metadata>
Created by iconfont
</metadata>
<defs>

<font id="iconfont" horiz-adv-x="1024" >
  <font-face
    font-family="iconfont"
    font-weight="500"
    font-stretch="normal"
    units-per-em="1024"
    ascent="896"
    descent="-128"
  />
    <missing-glyph />
    
    <glyph glyph-name="toright" unicode="&#58961;" d="M874.690416 400.464997c0-5.423523-2.159176-10.632151-5.996574-14.46955l-223.00912-223.00912c-4.001127-3.990894-9.240455-5.996574-14.46955-5.996574-5.239328 0-10.478655 1.995447-14.479783 5.996574-7.992021 7.992021-7.992021 20.947078 0 28.939099l188.083679 188.083679-604.773963 0c-11.2973 0-20.466124 9.168824-20.466124 20.466124 0 11.307533 9.168824 20.466124 20.466124 20.466124l604.753497 0-188.073446 188.073446c-7.992021 7.992021-7.992021 20.947078 0 28.949332 7.992021 7.992021 20.957311 7.992021 28.949332 0l223.019353-223.029586C872.53124 411.097148 874.690416 405.898753 874.690416 400.464997z"  horiz-adv-x="1024" />

    
    <glyph glyph-name="weixin2" unicode="&#58939;" d="M498.816 466.944c26.336 0 43.936 17.632 43.936 43.904 0 26.56-17.568 43.744-43.936 43.744s-52.832-17.184-52.832-43.744C446.016 484.576 472.48 466.944 498.816 466.944zM253.088 554.592c-26.336 0-52.96-17.184-52.96-43.744 0-26.272 26.624-43.904 52.96-43.904 26.24 0 43.808 17.632 43.808 43.904C296.864 537.408 279.328 554.592 253.088 554.592zM1024 185.888c0 138.88-128.832 257.216-286.976 269.536 0.224 1.728 0.32 3.52-0.064 5.312-31.712 147.84-190.688 259.296-369.824 259.296C164.704 720.032 0 578.88 0 405.376c0-93.088 47.52-176.96 137.568-243.104l-31.392-94.368c-2.016-6.144-0.192-12.896 4.704-17.152 2.976-2.56 6.72-3.904 10.496-3.904 2.432 0 4.896 0.576 7.168 1.696L246.4 107.52l14.528-2.944c36.288-7.456 67.616-13.92 106.208-13.92 11.36 0 22.88 0.512 34.176 1.472 4.576 0.384 8.448 2.688 11.072 6.016 42.496-106.336 159.616-183.104 297.44-183.104 35.296 0 71.04 8.512 103.104 16.544l90.848-49.664c2.4-1.312 5.056-1.984 7.68-1.984 3.584 0 7.168 1.216 10.048 3.552 5.056 4.096 7.136 10.848 5.248 17.024l-23.2 77.152C981.344 39.136 1024 112.672 1024 185.888zM398.592 124.032c-10.4-0.896-20.96-1.344-31.424-1.344-35.328 0-65.216 6.112-99.776 13.248L247.296 140c-3.456 0.736-7.104 0.256-10.272-1.376l-88.288-44.192 22.944 68.928c2.24 6.752-0.224 14.112-6.016 18.176C76.96 243.36 32 318.688 32 405.376c0 155.84 150.336 282.656 335.136 282.656 163.36 0 308-99.392 337.856-231.584-171.296-2.24-309.888-122.656-309.888-270.56 0-21.504 3.264-42.336 8.768-62.432C402.208 123.872 400.448 124.192 398.592 124.032zM875.456-3.552c-5.344-4.032-7.616-10.976-5.696-17.376l15.136-50.336-62.112 33.984c-2.368 1.312-5.024 1.984-7.68 1.984-1.312 0-2.624-0.16-3.904-0.512-33.312-8.416-67.776-17.088-101.344-17.088-155.904 0-282.72 107.136-282.72 238.816 0 131.68 126.816 238.784 282.72 238.784 152.928 0 282.144-109.344 282.144-238.784C992 120.256 950.624 52.96 875.456-3.552zM612.992 300.032c-17.568 0-35.136-17.696-35.136-35.232 0-17.664 17.568-35.104 35.136-35.104 26.4 0 43.84 17.44 43.84 35.104C656.832 282.368 639.392 300.032 612.992 300.032zM806.016 300.032c-17.312 0-34.88-17.696-34.88-35.232 0-17.664 17.568-35.104 34.88-35.104 26.304 0 44.064 17.44 44.064 35.104C850.08 282.368 832.352 300.032 806.016 300.032z"  horiz-adv-x="1024" />

    
    <glyph glyph-name="iconfont31yiguanzhudianpu" unicode="&#58883;" d="M919.4 537.2c-22.1 54.6-54.5 103.5-96.5 145.4C781 724.5 732.1 757 677.5 779 624.9 800.4 569.2 811.2 512 811.2c-57.2 0-112.9-10.8-165.5-32.2C291.9 757 243 724.5 201.1 682.6c-41.9-41.9-74.4-90.8-96.5-145.4-21.3-52.7-32.2-108.4-32.2-165.5s10.8-112.9 32.2-165.5c22.1-54.6 54.5-103.5 96.5-145.4 41.9-41.9 90.8-74.4 145.4-96.5 52.7-21.3 108.4-32.2 165.5-32.2 57.2 0 112.9 10.8 165.5 32.2 54.6 22.1 103.5 54.5 145.4 96.5 41.9 41.9 74.4 90.8 96.5 145.4 21.3 52.7 32.2 108.4 32.2 165.5S940.7 484.5 919.4 537.2zM881 371.6c0-48-9.1-94.8-27-139-18.5-45.8-45.8-86.9-81-122.1-35.2-35.2-76.3-62.4-122.1-81-44.2-17.9-91-27-139-27-48 0-94.8 9.1-139 27-45.8 18.5-86.9 45.8-122.1 81-35.2 35.2-62.4 76.3-81 122.1-17.9 44.2-27 91-27 139 0 48 9.1 94.8 27 139 18.5 45.8 45.8 86.9 81 122.1 35.2 35.2 76.2 62.4 122.1 81 44.2 17.9 91 27 139 27 48 0 94.8-9.1 139-27 45.8-18.5 86.9-45.8 122.1-81 35.2-35.2 62.4-76.2 81-122.1C871.9 466.4 881 419.6 881 371.6zM454.3 611.6c-6.2 6-14.5 9.3-23.2 9.3-8.8 0-17-3.3-23.2-9.3-6.2-6-9.7-14.1-9.7-22.6 0-8.6 3.4-16.6 9.7-22.7L596.4 384 407.8 201.7c-6.2-6-9.7-14.1-9.7-22.6 0-8.6 3.4-16.6 9.7-22.6 6.2-6 14.4-9.3 23.2-9.3 8.8 0 17 3.3 23.2 9.3l212 204.9c6.2 6 9.7 14.1 9.7 22.6 0 8.6-3.4 16.6-9.7 22.7L454.3 611.6z"  horiz-adv-x="1024" />

    
    <glyph glyph-name="hot" unicode="&#59224;" d="M726.4 694.4c-12.8 9.6-28.8 6.4-38.4 0-9.6-9.6-16-25.6-9.6-38.4 6.4-12.8 9.6-28.8 12.8-44.8-86.4 201.6-230.4 246.4-236.8 249.6-9.6 3.2-22.4 0-28.8-6.4-9.6-6.4-12.8-19.2-9.6-28.8 12.8-86.4-25.6-188.8-115.2-310.4-6.4 25.6-16 51.2-32 80-9.6 9.6-22.4 16-35.2 12.8-16-3.2-25.6-12.8-25.6-28.8-3.2-48-25.6-92.8-51.2-140.8-22.4-41.6-44.8-86.4-54.4-134.4-32-153.6 35.2-265.6 224-368 6.4-3.2 9.6-3.2 16-3.2 9.6 0 19.2 6.4 25.6 12.8 9.6 16 6.4 35.2-9.6 44.8l-3.2 3.2c-188.8 105.6-214.4 192-192 297.6 9.6 41.6 28.8 76.8 48 118.4 12.8 19.2 22.4 38.4 28.8 57.6 0-9.6 3.2-22.4 3.2-32 0-12.8 9.6-25.6 22.4-28.8 12.8-3.2 25.6 0 35.2 9.6 112 134.4 172.8 256 179.2 364.8 51.2-32 137.6-108.8 182.4-272 3.2-9.6 9.6-19.2 22.4-22.4 9.6-3.2 22.4 0 28.8 6.4 25.6 22.4 38.4 54.4 41.6 86.4 54.4-67.2 115.2-176 108.8-288-6.4-92.8-57.6-172.8-150.4-243.2 35.2 166.4-32 358.4-179.2 457.6-9.6 6.4-22.4 6.4-32 3.2-9.6-6.4-16-16-16-28.8-3.2-89.6-48-144-89.6-198.4-35.2-44.8-70.4-89.6-76.8-150.4 0-16 12.8-32 28.8-35.2 19.2-3.2 32 12.8 35.2 28.8 3.2 41.6 32 76.8 60.8 115.2 35.2 44.8 76.8 99.2 96 176 115.2-108.8 153.6-300.8 83.2-435.2v-3.2c0-3.2 0-3.2-3.2-6.4v-12.8c0-3.2 0-3.2 3.2-6.4v-3.2l3.2-3.2c0-3.2 3.2-3.2 3.2-6.4 0 0 3.2-3.2 6.4-3.2l3.2-3.2s3.2 0 3.2-3.2h19.2c3.2 0 6.4 0 9.6 3.2 163.2 89.6 252.8 208 259.2 345.6 9.6 214.4-169.6 393.6-204.8 416z"  horiz-adv-x="1024" />

    
    <glyph glyph-name="unie655" unicode="&#59119;" d="M512 884c-282.784 0-512-229.248-512-512s229.248-512 512-512 512 229.248 512 512-229.248 512-512 512zM393.12 213.952c-39.264 0-76.672 6.816-110.88 19.04l-96.032-64.224 0 3.872 31.136 92.768c-69.984 46.016-115.392 118.592-115.392 200.512 0 139.136 130.368 251.968 291.168 251.968 146.56 0 267.456-93.792 287.808-215.744-61.184-1.76-288.192-26.048-263.232-287.104-8.128-0.576-16.288-1.088-24.576-1.088zM820.576 105.92l19.808-71.04-73.568 44.352c-28.544-10.176-59.776-15.872-92.544-15.872-135.04 0-244.512 95.168-244.512 212.608s109.472 212.608 244.512 212.608c135.04 0 244.512-95.168 244.512-212.608 0-69.664-38.688-131.264-98.176-170.048zM328.352 548.16c0-22.176-17.984-40.16-40.16-40.16s-40.16 17.984-40.16 40.16c0 22.176 17.984 40.16 40.16 40.16s40.16-17.984 40.16-40.16zM537.248 548.16c0-22.176-17.984-40.16-40.16-40.16s-40.16 17.984-40.16 40.16c0 22.176 17.984 40.16 40.16 40.16s40.16-17.984 40.16-40.16zM639.264 339.296c0-22.176-17.984-40.16-40.16-40.16s-40.16 17.984-40.16 40.16c0 22.176 17.984 40.16 40.16 40.16s40.16-17.984 40.16-40.16zM800.544 339.296c0-22.176-17.984-40.16-40.16-40.16s-40.16 17.984-40.16 40.16c0 22.176 17.984 40.16 40.16 40.16s40.16-17.984 40.16-40.16z"  horiz-adv-x="1024" />

    
    <glyph glyph-name="miaojiesellerlike" unicode="&#58984;" d="M711.259206 735.482143c-56.313563 0-112.659873-21.505803-155.670455-64.484663l-38.853913-38.902008-0.031722 0-4.460592-4.493338-4.476965 4.493338-0.016373 0-38.933731 38.902008c-43.026956 42.97886-99.43671 64.484663-155.814742 64.484663-56.426127 0-112.835881-21.505803-155.846464-64.484663-86.069261-85.957721-86.069261-225.351468 0-311.309188L332.475254 184.543296l0.031722 0 136.339178-136.163169c10.728342-10.68127 24.703635-15.861246 38.774095-15.861246 1.566682 0 3.086291 0.063445 4.668323 0.207731 1.566682-0.144286 3.118014-0.207731 4.684696-0.207731 13.974269 0 27.981285 5.179976 38.677904 15.861246l311.276443 311.277466c85.957721 85.989443 85.957721 225.351468 0 311.309188C823.918056 713.97634 767.57277 735.482143 711.259206 735.482143"  horiz-adv-x="1024" />

    
    <glyph glyph-name="12sina" unicode="&#58958;" d="M692.8 390.4c-28.8 4.8-14.4 20.8-14.4 20.8s28.8 46.4-4.8 80c-41.6 41.6-144-4.8-144-4.8-38.4-12.8-28.8 4.8-22.4 35.2 0 35.2-12.8 94.4-115.2 59.2-104-35.2-192-160-192-160C136 339.2 144 275.2 144 275.2c16-140.8 164.8-179.2 281.6-188.8 121.6-9.6 286.4 41.6 337.6 148.8C811.2 342.4 721.6 384 692.8 390.4zM433.6 126.4c-121.6-6.4-219.2 54.4-219.2 136 0 81.6 97.6 145.6 219.2 152 121.6 4.8 219.2-44.8 219.2-124.8C652.8 208 555.2 132.8 433.6 126.4zM409.6 361.6c-121.6-14.4-107.2-128-107.2-128s-1.6-36.8 32-54.4c72-38.4 145.6-16 182.4 32C553.6 259.2 531.2 376 409.6 361.6zM379.2 201.6c-22.4-3.2-41.6 11.2-41.6 28.8 0 19.2 16 38.4 38.4 41.6 25.6 3.2 43.2-12.8 43.2-32C420.8 220.8 401.6 203.2 379.2 201.6zM451.2 262.4c-8-6.4-17.6-4.8-20.8 1.6-4.8 6.4-3.2 17.6 4.8 24 9.6 6.4 19.2 4.8 22.4-1.6C460.8 278.4 459.2 268.8 451.2 262.4zM752 440c9.6 0 17.6 8 19.2 16 0 0 0 1.6 0 1.6 14.4 134.4-110.4 110.4-110.4 110.4-11.2 0-19.2-9.6-19.2-20.8 0-11.2 9.6-19.2 19.2-19.2 89.6 19.2 70.4-70.4 70.4-70.4C731.2 448 740.8 440 752 440zM737.6 673.6c-43.2 9.6-88 1.6-99.2-1.6-1.6 0-1.6-1.6-3.2-1.6 0 0 0 0 0 0-12.8-3.2-20.8-14.4-20.8-28.8 0-16 12.8-28.8 28.8-28.8 0 0 16 1.6 25.6 6.4 11.2 4.8 99.2 3.2 144-72 24-54.4 11.2-91.2 9.6-96 0 0-6.4-14.4-6.4-28.8 0-16 12.8-25.6 28.8-25.6 12.8 0 24 1.6 27.2 24l0 0C920 580.8 814.4 654.4 737.6 673.6zM513.6 875.2c-272 0-494.4-222.4-494.4-494.4S241.6-112 513.6-112 1008 110.4 1008 382.4 785.6 875.2 513.6 875.2zM513.6-80C259.2-80 52.8 128 52.8 382.4s208 462.4 462.4 462.4S976 636.8 976 382.4 768-80 513.6-80z"  horiz-adv-x="1024" />

    
    <glyph glyph-name="iconfontdianzan" unicode="&#58896;" d="M190.193225 340.588417c14.446014 0 26.139334 11.718903 26.139334 26.13831 0 14.44499-11.69332 26.164916-26.139334 26.164916-0.271176 0-0.490164-0.149403-0.73678-0.149403l-62.496379-0.146333c-1.425466 0.195451-2.90005 0.295735-4.373611 0.295735-19.677155 0-35.621289-16.141632-35.621289-36.114522L86.622358-76.550075c0-19.949354 15.96767-35.597753 35.670407-35.597753 1.916653 0 3.808746-0.292666 5.649674 0l61.022819-0.022513c0.099261 0 0.148379-0.048095 0.24764-0.048095 0.097214 0 0.146333 0.048095 0.24457 0.048095l0.73678 0 0 0.148379c13.413498 0.540306 24.174586 11.422144 24.174586 24.960485 0 13.55983-10.760065 24.441669-24.174586 24.981974l0 0.393973-50.949392 0 1.450025 402.275993L190.193225 340.590464zM926.52241 378.051657c-19.283182 31.445176-47.339168 44.172035-81.289398 45.546336-1.77032 0.246617-3.536546 0.39295-5.380544 0.39295l-205.447139 0.688685c13.462616 39.059598 22.698978 85.58933 22.698978 129.317251 0 28.349675-3.193739 55.962569-9.041934 82.542948l-0.490164-0.049119c-10.638291 46.578852-51.736315 81.31498-100.966553 81.31498-57.264215 0-95.466282-48.15065-95.466282-106.126063 0-3.241834-0.294712-6.387477 0-9.532097-2.996241-108.386546-91.240027-195.548698-196.23636-207.513194l0-54.881958-0.785899-222.227314 0-229.744521 10.709923 0 500.025271-0.222057 8.746198 0.243547c19.35686-0.049119 30.239721 4.817726 47.803749 16.116049 16.682961 10.761088 29.236881 25.50079 37.490869 42.156122 2.260483 3.341095 4.028757 7.075139 5.106298 11.20111l77.018118 344.324116c1.056052 4.053316 1.348718 8.181333 1.056052 12.160971C943.643346 335.553751 938.781618 358.055231 926.52241 378.051657zM893.82573 325.162076l-82.983993-367.783411-0.099261 0.049119c-2.555196-6.141884-6.879688-11.596106-12.872169-15.427364-4.177136-2.727111-8.773827-4.351098-13.414521-4.964058-1.49812 0.195451-3.046383 0-4.620227 0l-477.028511 0.540306-0.171915 407.408897c89.323375 40.266076 154.841577 79.670527 188.596356 173.661202 0.072655-0.024559 0.124843-0.049119 0.195451-0.072655 2.99931 9.137101 6.313799 20.73423 8.697079 33.164331 5.551436 29.185716 5.258771 58.123792 5.258771 58.123792-4.937452 37.98001 25.940812 52.965306 44.364417 52.965306 25.304316-0.860601 50.263777-33.656541 50.263777-52.326762 0 0 5.600555-27.563776 5.649674-57.190537 0.048095-37.366026-4.6673-56.847729-4.6673-56.847729l-0.466628 0c-5.872754-30.879288-16.214287-60.138682-30.464849-86.964654l0.36839-0.342808c-2.358721-4.815679-3.709485-10.220782-3.709485-15.943111 0-19.922748 19.088754-21.742187 38.765909-21.742187l238.761895-0.270153c0 0 14.666024-0.465604 14.690584-0.465604l0-0.100284c12.132318 0.638543 24.221658-5.207605 31.100322-16.409738 5.504364-9.016351 6.437619-19.6045 3.486404-28.988218L893.82573 325.162076zM264.827039-112.31872c0.319272-0.024559 0.441045-0.024559 0.295735 0.024559 0.243547 0.048095 0.367367 0.074701-0.295735 0.074701s-0.539282-0.026606-0.271176-0.074701C264.43409-112.343279 264.532327-112.343279 264.827039-112.31872z"  horiz-adv-x="1024" />

    
    <glyph glyph-name="mianfei" unicode="&#58923;" d="M512.001023 831.696462c-246.873644 0-447.699532-200.827935-447.699532-447.701578s200.825888-447.691345 447.699532-447.691345c246.871597 0 447.697485 200.818725 447.697485 447.691345S758.87262 831.696462 512.001023 831.696462L512.001023 831.696462zM512.001023-7.737986c-211.602326 0-391.734916 180.134637-391.734916 391.739009 0 211.602326 180.13259 391.732869 391.734916 391.732869 211.597209 0 391.734916-180.131567 391.734916-391.732869C903.735939 172.400744 723.603349-7.737986 512.001023-7.737986L512.001023-7.737986zM623.923092 384.001023c17.238616 0 35.659151 11.846816 35.659151 29.742395s-18.420535 26.218128-35.659151 26.218128l-93.270267 0 0 18.651802 118.705566 128.385019c11.875468 12.966313 11.68718 33.482579-0.777713 45.830815-12.406564 12.3247-31.980365 11.871375-43.911092-1.133823l-98.955756-108.180861L400.929322 632.278643c-12.218276 12.678764-31.91385 12.612249-44.066635-0.067538-12.160971-12.669554-12.748349-33.18889-0.564865-45.840024l118.393457-127.757732 0-18.651802-93.270267 0c-17.202801 0-33.379225-8.323573-33.379225-26.218128s16.176424-29.742395 33.379225-29.742395l93.270267 0 0-74.614371-93.270267 0c-17.202801 0-33.379225-7.396457-33.379225-25.324782 0-17.924231 16.176424-30.637788 33.379225-30.637788l93.270267 0 0-93.27743c0-17.923208 10.79281-37.300534 27.997658-37.300534 17.204847 0 27.963888 19.378349 27.963888 37.300534l0 93.27743 93.270267 0c17.234523 0 35.659151 12.712533 35.659151 30.637788 0 17.928325-18.424628 25.324782-35.659151 25.324782l-93.270267 0 0 74.614371L623.923092 384.001023 623.923092 384.001023zM228.40706 697.836755l606.757131-606.757131-39.571251-39.576367L188.833763 658.264481 228.40706 697.836755z"  horiz-adv-x="1024" />

    
    <glyph glyph-name="sousuo" unicode="&#58890;" d="M1264.292571 81.300114 1075.262171 270.250057c47.870171 53.904457 76.957257 124.842057 76.957257 202.580114 0 168.629029-136.791771 305.329371-305.532343 305.329371-168.7424 0-305.534171-136.702171-305.534171-305.329371 0-168.630857 136.791771-305.334857 305.534171-305.334857 77.566171 0 148.366629 28.900571 202.245486 76.496457l189.056-188.977371c7.263086-7.2576 19.039086-7.2576 26.300343 0C1271.555657 62.272 1271.555657 74.040686 1264.292571 81.300114zM846.723657 213.950171c-142.665143 0-258.322286 115.735771-258.322286 258.505143 0 142.765714 115.657143 258.503314 258.322286 258.503314 142.666971 0 258.322286-115.7376 258.322286-258.503314C1105.045943 329.685943 989.390629 213.950171 846.723657 213.950171z"  horiz-adv-x="1756" />

    
    <glyph glyph-name="iconfontico1" unicode="&#58940;" d="M196.571136 382.144512c0-174.10048 141.135872-315.236352 315.236352-315.236352 174.10048 0 315.236352 141.135872 315.236352 315.236352 0 174.102528-141.135872 315.236352-315.236352 315.236352C337.707008 697.380864 196.571136 556.244992 196.571136 382.144512L196.571136 382.144512zM511.807488 850.944C252.893184 850.944 43.008 641.058816 43.008 382.144512c0-258.90816 209.885184-468.799488 468.799488-468.799488 258.90816 0 468.799488 209.891328 468.799488 468.799488C980.609024 641.058816 770.715648 850.944 511.807488 850.944L511.807488 850.944zM511.807488-33.792c-229.71392 0-415.936512 186.222592-415.936512 415.936512 0 229.71392 186.222592 415.936512 415.936512 415.936512S927.744 611.858432 927.744 382.144512C927.744 152.430592 741.521408-33.792 511.807488-33.792L511.807488-33.792zM511.807488-33.792"  horiz-adv-x="1024" />

    
    <glyph glyph-name="iconfontico2" unicode="&#58941;" d="M511.807488 850.944C252.893184 850.944 43.008 641.058816 43.008 382.144512c0-258.90816 209.885184-468.799488 468.799488-468.799488 258.90816 0 468.799488 209.891328 468.799488 468.799488C980.609024 641.058816 770.715648 850.944 511.807488 850.944L511.807488 850.944zM511.807488-33.792c-229.71392 0-415.936512 186.222592-415.936512 415.936512 0 229.71392 186.222592 415.936512 415.936512 415.936512S927.744 611.858432 927.744 382.144512C927.744 152.430592 741.521408-33.792 511.807488-33.792L511.807488-33.792zM511.807488-33.792"  horiz-adv-x="1024" />

    
    <glyph glyph-name="liuyan" unicode="&#59204;" d="M511.913993-32.016126c-8.256677 0-16.341341 3.096254-22.705863 9.460776l-95.983874 95.983874c-12.55703 12.55703-12.55703 32.682681 0 45.239711s32.682681 12.55703 45.239711 0l73.450025-73.450025 73.450025 73.450025c6.020494 6.020494 14.105157 9.460776 22.705863 9.460776l223.962372 0c17.717453 0 31.994625 14.277171 31.994625 31.994625L864.026877 672.037628c0 17.545439-14.277171 31.994625-31.994625 31.994625l-639.892491 0c-17.545439 0-31.994625-14.449185-31.994625-31.994625l0-511.913993c0-17.717453 14.449185-31.994625 31.994625-31.994625l95.983874 0c17.717453 0 31.994625-14.277171 31.994625-31.994625s-14.277171-31.994625-31.994625-31.994625l-95.983874 0c-52.980346 0-95.983874 43.003528-95.983874 95.983874L96.155888 672.037628c0 52.980346 43.003528 95.983874 95.983874 95.983874l639.892491 0c52.980346 0 95.983874-43.003528 95.983874-95.983874l0-511.913993c0-52.980346-43.003528-95.983874-95.983874-95.983874L621.142953 64.139761 534.619856-22.55535C528.427348-28.747858 520.17067-32.016126 511.913993-32.016126zM335.943558 384.086007c-26.490173 0-47.991937 21.501764-47.991937 47.991937s21.501764 47.991937 47.991937 47.991937 47.991937-21.501764 47.991937-47.991937S362.433731 384.086007 335.943558 384.086007zM527.911305 384.086007c-26.490173 0-47.991937 21.501764-47.991937 47.991937s21.501764 47.991937 47.991937 47.991937 47.991937-21.501764 47.991937-47.991937S554.401478 384.086007 527.911305 384.086007zM720.051067 384.086007c-26.490173 0-47.991937 21.501764-47.991937 47.991937s21.501764 47.991937 47.991937 47.991937c26.490173 0 47.991937-21.501764 47.991937-47.991937S746.369226 384.086007 720.051067 384.086007z"  horiz-adv-x="1024" />

    
    <glyph glyph-name="dianzan1" unicode="&#58892;" d="M884.876 472.857h-237.905c92.186 340.464-63.517 357.853-63.517 357.853-65.993 0-52.312-52.182-57.303-60.882 0-166.502-176.85-296.972-176.85-296.972v-472.172c0-46.608 63.517-63.394 88.433-63.394h357.452c33.641 0 61.036 88.224 61.036 88.224 88.434 300.706 88.434 390.177 88.434 390.177 0.001 62.128-59.781 57.164-59.781 57.164v0 0zM251.671 472.7h-142.457c-29.42 0-29.873-28.896-29.873-28.896l29.42-476.203c0-30.309 30.361-30.309 30.361-30.309h123.297c25.686 0 25.459 20.050 25.459 20.050l-0 479.247c0 36.574-36.208 36.111-36.208 36.111v0 0zM251.671 472.7z"  horiz-adv-x="1024" />

    
    <glyph glyph-name="07jiantouxiangzuo" unicode="&#58904;" d="M64 384c0 247.039 200.961 448 448 448s448-200.961 448-448S759.039-64 512-64 64 136.961 64 384zM128 384c0-211.744 172.256-384 384-384s384 172.256 384 384S723.744 768 512 768 128 595.744 128 384zM362.272 360.029l160.255-158.496c6.241-6.145 14.369-9.248 22.497-9.248 8.255 0 16.512 3.169 22.751 9.504 12.416 12.576 12.32 32.801-0.256 45.248L430.112 382.942 566.4 519.614c12.48 12.513 12.449 32.768-0.064 45.248-12.513 12.513-32.768 12.449-45.248-0.064L362.176 405.439c-0.031-0.033-0.031-0.064-0.064-0.096-0.033-0.031-0.064-0.031-0.096-0.064-2.943-2.976-5.056-6.432-6.592-10.048-0.064-0.127-0.224-0.256-0.256-0.384C350.399 383.233 352.768 369.408 362.272 360.029z"  horiz-adv-x="1024" />

    
    <glyph glyph-name="weixin" unicode="&#58931;" d="M924.836001 561.11179c-22.649859 53.535287-55.067176 101.618399-96.350418 142.900617-41.288358 41.288358-89.370447 73.701582-142.915967 96.345302C630.135072 823.806771 571.254034 835.696566 510.55765 835.696566c-60.720943 0-119.599935-11.889795-175.042665-35.337833-53.53938-22.64372-101.624539-55.057967-142.91085-96.345302-41.288358-41.283242-73.703629-89.360214-96.350418-142.900617-23.445992-55.438637-35.337833-114.320699-35.337833-175.011966 0-60.678988 11.889795-119.555933 35.337833-174.990476 22.646789-53.53938 55.063083-101.617375 96.350418-142.905734 41.286312-41.288358 89.3684-73.699536 142.91085-96.349395 55.43966-23.442922 114.321722-35.332716 175.042665-35.332716 60.696384 0 119.577423 11.889795 175.011966 35.332716 53.54552 22.649859 101.627608 55.06206 142.915967 96.349395 41.283242 41.289382 73.700559 89.361237 96.350418 142.905734 23.442922 55.434543 35.332716 114.316605 35.332716 174.990476C960.169741 446.796208 948.284039 505.673154 924.836001 561.11179zM510.55765-37.720857c-233.743602 0-423.883103 190.129268-423.883103 423.825798 0 233.703693 190.141548 423.831938 423.883103 423.831938 233.719042 0 423.856497-190.128245 423.856497-423.831938C934.414147 152.408411 744.270553-37.720857 510.55765-37.720857zM633.199874 478.114494c-103.510492 0-185.046506-71.222111-185.046506-158.578692 0-87.516216 81.534991-158.584831 185.046506-158.584831 21.665439 0 43.521213 5.491061 65.278749 10.967796l59.676148-32.821523-16.362666 54.609759c43.677778 32.909527 76.208683 76.549443 76.208683 125.8288C818.000787 406.898523 730.961432 478.114494 633.199874 478.114494zM573.205479 346.882638c-10.829649 0-21.759583 10.825556-21.759583 21.858844 0 10.886955 10.923794 21.85782 21.759583 21.85782 16.45374 0 27.230178-10.970866 27.235294-21.85782C600.441796 357.709217 589.664336 346.882638 573.205479 346.882638zM692.878069 346.882638c-10.758018 0-21.611204 10.825556-21.611204 21.858844 0 10.886955 10.853186 21.85782 21.611204 21.85782 16.307408 0 27.230178-10.970866 27.235294-21.85782C720.113363 357.709217 709.184453 346.882638 692.878069 346.882638zM619.43436 489.863073c7.051603 0 14.030551-0.515746 20.952194-1.290389-18.828834 88.041172-112.546286 153.463184-219.522716 153.463184-119.595842 0-217.562061-81.882915-217.562061-185.856965 0-60.016909 32.592302-109.289102 87.060845-147.522891l-21.763676-65.738213 76.057233 38.309514c27.217898-5.408173 49.049113-10.970866 76.207659-10.970866 6.830569 0 13.596669 0.338714 20.313651 0.868787-4.254907 14.610766-6.716982 29.918403-6.716982 45.794999C434.459484 412.379351 516.08862 489.85898 619.43436 489.863073zM502.453065 549.107385c16.382109 0 27.236318-10.818393 27.236318-27.269064 0-16.380062-10.854209-27.356045-27.236318-27.356045-16.308431 0-32.674167 10.975982-32.674167 27.356045C469.778898 538.283876 486.144634 549.107385 502.453065 549.107385zM350.183056 494.481254c-16.304338 0-32.763195 10.975982-32.763195 27.356045 0 16.445554 16.458857 27.269064 32.763195 27.269064 16.307408 0 27.160593-10.818393 27.160593-27.269064C377.342626 505.457236 366.490463 494.481254 350.183056 494.481254z"  horiz-adv-x="1024" />

    
    <glyph glyph-name="phone" unicode="&#58886;" d="M667.381371 830.497147 355.949386 830.497147c-54.926984 0-99.612719-45.848211-99.612719-102.202707l0-687.414125c0-56.353472 44.685735-102.20066 99.612719-102.20066l311.431985 0c54.92596 0 99.610672 45.847188 99.610672 102.20066L766.992043 728.29444C766.99102 784.648936 722.306308 830.497147 667.381371 830.497147zM728.569966 40.880315c0-35.166941-27.449165-63.778582-61.188594-63.778582L355.949386-22.898267c-33.740452 0-61.189617 28.611641-61.189617 63.778582l0 49.753147 433.810197 0L728.569966 40.880315zM728.569966 129.05554l-433.810197 0L294.759769 686.166971l433.810197 0L728.569966 129.05554zM728.569966 724.590072l-433.810197 0 0 3.704368c0 35.167964 27.449165 63.779605 61.189617 63.779605l311.431985 0c33.739429 0 61.188594-28.611641 61.188594-63.779605L728.569966 724.590072zM511.664867 33.868621m-37.604456 0a36.748 36.748 0 1 0 75.208912 0 36.748 36.748 0 1 0-75.208912 0Z"  horiz-adv-x="1024" />

    
    <glyph glyph-name="weixuanzhongkuang" unicode="&#58976;" d="M865.777931 824.368566 158.222069 824.368566c-51.586912 0-93.406366-41.819454-93.406366-93.406366L64.815703 23.406339c0-51.586912 41.819454-93.406366 93.406366-93.406366l707.555861 0c51.586912 0 93.406366 41.819454 93.406366 93.406366L959.184297 730.9622C959.184297 782.549112 917.364843 824.368566 865.777931 824.368566zM897.785925 73.261816c0-45.212738-36.651758-81.864496-81.864496-81.864496l-607.843882 0c-45.212738 0-81.864496 36.651758-81.864496 81.864496L126.213052 681.105698c0 45.212738 36.651758 81.864496 81.864496 81.864496l607.843882 0c45.212738 0 81.864496-36.651758 81.864496-81.864496L897.785925 73.261816z"  horiz-adv-x="1024" />

    
    <glyph glyph-name="liuyan1" unicode="&#59209;" d="M784.614911 660.363282 238.20317 660.363282c-45.140083 0-81.864496-36.724413-81.864496-81.864496l0-303.900451c0-45.140083 36.724413-81.864496 81.864496-81.864496L502.979556 192.733838l121.92284-120.946606c3.990894-3.959172 9.202593-5.936199 14.412244-5.936199 5.265934 0 10.529821 2.020006 14.530948 6.052856 7.959276 8.024767 7.90811 20.982894-0.116657 28.943193L525.82282 227.729887c-0.13303 0.132006-0.278339 0.24457-0.414439 0.372483-0.345877 0.325411-0.692778 0.649799-1.060145 0.950651-0.245593 0.200568-0.502443 0.376577-0.754177 0.563842-0.283456 0.210801-0.560772 0.426719-0.854461 0.623193-0.290619 0.193405-0.591471 0.363274-0.890276 0.540306-0.275269 0.163729-0.544399 0.333598-0.827855 0.485047-0.305969 0.162706-0.6191 0.301875-0.930185 0.448208-0.294712 0.138146-0.584308 0.282433-0.886183 0.407276-0.305969 0.125867-0.618077 0.229221-0.928139 0.339738-0.320295 0.11461-0.636496 0.234337-0.962931 0.332575-0.311085 0.093121-0.627287 0.163729-0.941442 0.242524-0.333598 0.082888-0.663102 0.173962-1.001817 0.240477-0.347924 0.068562-0.698918 0.110517-1.048889 0.159636-0.310062 0.044002-0.61603 0.100284-0.930185 0.12996-0.465604 0.045025-0.933255 0.057305-1.399883 0.070608-0.194428 0.005117-0.38374 0.029676-0.579191 0.029676L238.20317 233.666086c-22.570042 0-40.932248 18.362206-40.932248 40.932248L197.270922 578.498786c0 22.570042 18.362206 40.932248 40.932248 40.932248l546.411741 0c22.570042 0 40.932248-18.362206 40.932248-40.932248l0-303.900451c0-22.570042-18.362206-40.932248-40.932248-40.932248L659.783835 233.666086c-11.30344 0-20.466124-9.162684-20.466124-20.466124s9.162684-20.466124 20.466124-20.466124l124.831077 0c45.140083 0 81.864496 36.724413 81.864496 81.864496L866.479407 578.498786C866.479407 623.638869 829.754994 660.363282 784.614911 660.363282zM351.681688 425.443901m-30.699186 0a30 30 0 1 0 61.398372 0 30 30 0 1 0-61.398372 0ZM511.317455 425.443901m-30.699186 0a30 30 0 1 0 61.398372 0 30 30 0 1 0-61.398372 0ZM668.906609 425.443901m-30.699186 0a30 30 0 1 0 61.398372 0 30 30 0 1 0-61.398372 0Z"  horiz-adv-x="1024" />

    
    <glyph glyph-name="bottom" unicode="&#58969;" d="M511.452 176.758l310.742 414.321h-621.378l310.637-414.321z"  horiz-adv-x="1024" />

    
    <glyph glyph-name="weixin1" unicode="&#58986;" d="M720.29989 551.09151c3.38699 0 6.209482 0 9.596472 0C697.719956 692.780595 548.127894 800.035281 368.052922 800.035281 164.833517 800.035281 0 663.426681 0 495.206174c0-99.351709 57.014333-187.413451 145.640573-242.734289l-36.692393-111.770673 131.528115 68.868798c39.514884-12.418964 82.981257-18.628445 127.576626-18.628445 9.596472 0 19.192944 0.564498 28.224917 1.128997-7.902977 24.273429-12.418964 50.240353-12.418964 76.207277C383.858875 424.079383 534.579934 551.09151 720.29989 551.09151zM493.936053 650.443219c26.531422 0 47.982359-22.015436 47.982359-48.546858 0-27.095921-21.450937-48.546858-47.982359-48.546858S445.953693 574.800441 445.953693 601.896362C445.953693 628.427784 467.404631 650.443219 493.936053 650.443219zM239.911797 553.349504c-26.531422 0-47.982359 22.015436-47.982359 48.546858 0 27.095921 21.450937 48.546858 47.982359 48.546858s47.982359-22.015436 47.982359-48.546858C287.894157 574.800441 266.443219 553.349504 239.911797 553.349504zM1024 267.713341c0 141.689085-136.044101 256.846748-304.264609 256.846748-167.656009 0-304.264609-115.157663-304.264609-256.846748s136.044101-256.846748 304.264609-256.846748c35.563396 0 69.997795 5.080485 102.174201 14.676957l102.174201-57.578831-27.660419 90.319735C973.759647 105.137817 1024 181.345094 1024 267.713341zM620.948181 310.615215c-22.015436 0-40.079383 16.370452-40.079383 36.127894 0 19.757442 18.063947 36.127894 40.079383 36.127894s40.079383-16.370452 40.079383-36.127894C661.027563 326.421169 642.963616 310.615215 620.948181 310.615215zM820.216097 310.615215c-22.015436 0-40.079383 16.370452-40.079383 36.127894 0 19.757442 18.063947 36.127894 40.079383 36.127894s40.079383-16.370452 40.079383-36.127894C860.29548 326.421169 842.231533 310.615215 820.216097 310.615215z"  horiz-adv-x="1024" />

    
    <glyph glyph-name="jiantou2" unicode="&#58943;" d="M510.80529-57.690678c-244.532319 0-443.568445 199.037149-443.568445 443.568445 0 244.534366 198.971657 443.568445 443.568445 443.568445 244.660232 0 443.567421-199.034079 443.567421-443.568445C954.372711 141.346471 755.465522-57.690678 510.80529-57.690678zM510.80529 770.325719c-212.151841 0-384.827599-172.485423-384.827599-384.447952 0-211.960483 172.674735-384.382461 384.827599-384.382461 212.215286 0 384.890021 172.4844 384.890021 384.382461C895.696334 597.84132 723.084021 770.325719 510.80529 770.325719zM430.265976 141.599228c-5.703909 0-11.342326 2.090615-15.651468 6.526647-8.617261 8.617261-8.617261 22.557762 0 31.302937l205.245548 206.449979-205.118658 206.513424c-8.616238 8.618285-8.616238 22.62223 0 31.429827 8.617261 8.617261 22.558785 8.617261 31.17707 0l236.167814-237.94325-236.294704-237.816361C441.608302 143.689842 435.968861 141.599228 430.265976 141.599228z"  horiz-adv-x="1024" />

    
    <glyph glyph-name="weixin-copy" unicode="&#58971;" d="M579.867 384.068c-11.67 0-23.344-10.837-23.344-24.178 0-10.839 11.668-21.678 23.344-21.678 17.514 0 30.020 10.839 30.020 21.678 0 13.34-12.505 24.178-30.020 24.178v0zM503.154 496.64c18.345 0 30.020 11.67 30.020 29.185 0 18.345-11.675 29.183-30.020 29.183-17.51 0-34.188-10.839-34.188-29.183-0.001-17.517 16.678-29.185 34.188-29.185v0zM512.326 895.44c-282.655 0-511.788-229.133-511.788-511.788 0-282.653 229.133-511.786 511.788-511.786 282.653 0 511.786 229.133 511.786 511.786 0.001 282.655-229.132 511.788-511.786 511.788v0zM415.602 253.991c-30.855 0-53.369 4.999-82.553 13.341l-84.218-42.53 24.186 71.715c-59.204 41.689-94.228 94.221-94.228 158.428 0 113.403 106.733 200.123 236.814 200.123 115.069 0 217.633-68.377 237.644-165.106-8.338 1.671-15.844 2.502-22.514 2.502-113.403 0-200.954-85.049-200.954-187.613 0-17.508 2.502-33.351 6.671-50.030-6.671-0.829-14.178-0.829-20.849-0.829v0zM763.314 172.276l16.674-60.041-63.371 35.854c-24.18-4.999-47.529-12.505-71.709-12.505-111.737 0-200.123 76.711-200.123 171.769 0 95.058 88.388 171.771 200.123 171.771 105.895 0 200.954-76.713 200.954-171.771 0-53.362-35.854-100.891-82.548-135.078v0zM338.053 555.008c-17.51 0-35.854-10.839-35.854-29.183 0-17.516 18.343-29.19 35.854-29.19 16.679 0 30.020 11.675 30.020 29.19 0 18.343-13.341 29.183-30.020 29.183v0zM710.783 384.068c-12.51 0-23.349-10.837-23.349-24.178 0-10.839 10.839-21.678 23.349-21.678 16.674 0 29.183 10.839 29.183 21.678 0 13.34-12.509 24.178-29.183 24.178v0zM710.783 384.068z"  horiz-adv-x="1024" />

    
    <glyph glyph-name="buoumaotubiao17" unicode="&#58926;" d="M974.691815 410.969413l-1.070399 4.979685c-8.726083 48.610099-38.860155 91.216652-198.279871 74.322956-32.972958-3.490433-58.150616 2.652729-75.090851 18.2666-25.014771 23.083398-26.922874 61.408353-27.039222 69.203654 3.909285 21.547607 30.971777 181.479253-12.774985 263.760396-29.482525 55.567695-98.523292 65.666682-148.343408 43.420988-49.331455-22.129346-70.204245-70.180975-51.891106-119.558969 36.812435-99.384266-19.686043-195.161751-73.531791-258.012816-66.27169-77.25492-157.488342-72.298505-162.81707-72.065809L111.065582 435.286097c-0.232696 0-0.418852-0.116348-0.628278-0.116348-0.232696 0-0.418852 0.093078-0.628278 0.093078-25.829205-1.419443-64.293778-19.150843-64.293778-62.152979l0-360.864246c-0.02327-3.67659 0.325774-36.393583 22.687815-54.962687 6.911058-5.74758 17.940826-11.751125 33.764123-11.751125 3.699859 0 7.795301 0.488661 12.053629 1.233286 0.186156 0.02327 0.349043-0.046539 0.51193-0.02327 0.209426 0.02327 0.628278 0.116348 0.907513 0.162887 0.046539 0 0.093078 0 0.139617 0 0.02327 0 0.02327 0 0.046539 0.02327 1.279825 0.232696 3.071581 0.581739 5.701041 1.186747 88.261419 19.499886 132.799346 7.050675 154.602918-6.841249 65.899377-41.955006 174.661273-53.799209 180.804436-54.380948l294.33659-11.169386c8.702813-2.233877 19.406808-3.746398 31.064855-3.746398 36.928782 0 83.281734 15.288097 105.131846 71.902922 12.239785 31.879289 4.863337 55.335-3.490433 69.41308-1.256556 2.09426-2.652729 4.048902-4.072172 5.980275 22.222424 13.356724 38.301686 36.998591 47.702586 70.716175 9.214743 32.90315 3.001772 59.290824-9.796482 79.535336 10.797073 2.140799 21.152025 5.794119 29.76176 12.053629 13.356724 9.703404 21.035677 23.851293 22.222424 40.907876 2.955233 42.839249-6.236241 74.695269-26.853065 95.242285C988.211426 349.793755 978.857065 392.423579 974.691815 410.969413z"  horiz-adv-x="1024" />

    
    <glyph glyph-name="leftarrow" unicode="&#58916;" d="M512 896c-282.779 0-512-229.221-512-512s229.221-512 512-512 512 229.221 512 512-229.221 512-512 512zM512-89.358c-261.429 0-473.358 211.929-473.358 473.358s211.929 473.358 473.358 473.358c261.429 0 473.358-211.929 473.358-473.358 0-261.429-211.929-473.358-473.358-473.358zM408.789 379.054l197.188 197.188c3.768 3.768 3.768 9.892 0 13.66l-13.66 13.66c-3.768 3.768-9.892 3.768-13.66 0l-218.595-218.595c-3.768-3.768-3.768-9.892 0-13.66l13.66-13.66c1.333-1.333 2.995-2.029 4.714-2.415l209.012-208.993c3.729-3.748 9.796-3.748 13.544 0l13.544 13.544c3.729 3.729 3.729 9.796 0 13.544l-205.747 205.727z"  horiz-adv-x="1024" />

    
    <glyph glyph-name="rightarrow" unicode="&#58918;" d="M445.343 603.561c-3.768 3.768-9.892 3.768-13.66 0l-13.66-13.66c-3.768-3.768-3.768-9.892 0-13.66l197.188-197.188-205.727-205.747c-3.729-3.748-3.729-9.796 0-13.544l13.544-13.544c3.729-3.748 9.796-3.748 13.544 0l209.012 208.993c1.72 0.386 3.381 1.082 4.714 2.415l13.66 13.66c3.768 3.768 3.768 9.892 0 13.66l-218.614 218.614zM512 896c-282.759 0-512-229.221-512-512 0-282.759 229.241-512 512-512 282.779 0 512 229.241 512 512 0 282.779-229.221 512-512 512zM512-89.358c-261.429 0-473.358 211.929-473.358 473.358s211.929 473.358 473.358 473.358c261.429 0 473.358-211.929 473.358-473.358 0-261.429-211.929-473.358-473.358-473.358z"  horiz-adv-x="1024" />

    
    <glyph glyph-name="huifucopy2" unicode="&#58950;" d="M730.600914 835.083715C730.399474 805.212288 730.294066 790.270229 730.133489 769.350803 729.941831 744.942034 729.866469 735.876438 729.741229 722.37824 729.602983 707.478185 729.474527 695.63701 729.357024 687.236992 729.264129 680.956783 729.264129 680.956783 729.167898 676.302572 729.117022 674.23814 729.117022 674.23814 729.037874 672.085256 728.984494 670.832749 728.984494 670.832749 728.818847 668.426831 740.97633 672.560919 740.97633 672.560919 650.262602 595.693362 607.455854 595.693362 559.419924 591.002548 509.173805 579.719976 437.781161 563.689135 373.814224 536.698901 318.789382 499.629566 247.986168 451.930027 192.196228 387.493916 152.48747 307.239226 105.949315 213.179681 80.94256 95.726285 78.974035-42.33958 78.155336-43.456102 77.356232-44.550404 76.576917-45.621752 71.869459-30.94272 60.156764-18.888688 44.388109-14.077141 39.692764-12.643808 34.805945-11.919029 29.904413-11.919029 19.17823-11.919029 8.962323-15.375754 0.645345-21.488798 0.701494-19.596249 0.761814-17.707071 0.826303-15.821273 33.760544 32.314021 85.799648 97.13367 151.187235 160.356431 209.448745 216.688035 269.193317 261.957444 329.09468 294.809884 405.39968 336.658052 482.365551 358.420307 557.616536 358.420307 597.599842 358.420307 637.29325 352.228125 675.822316 340.01757L730.794617 322.595858 730.794617 264.92897 730.794617 71.070657C728.088223 87.085103 717.27552 101.61779 701.182812 108.445548 684.667381 115.44681 665.890968 112.880595 652.025386 102.373155L1037.753604 498.229085C1019.521079 479.557007 1019.521079 450.045631 1037.749973 431.374876L651.773824 826.708363C665.662807 816.749408 684.575036 814.107233 701.204594 821.160882 717.375849 828.021971 728.219915 842.6894 730.39161 858.939532 730.730387 854.970153 730.692759 849.190695 730.600914 835.083715ZM491.916305 656.575493C557.75225 671.3587 614.362662 674.462592 650.262602 674.462592 650.856162 674.462592 652.025386 865.448241 652.025386 865.448241 652.025386 877.80424 659.292767 888.944344 670.439168 893.673504 681.588552 898.402663 694.414219 895.787572 702.944781 887.051763L1094.111256 486.402119C1105.760248 474.470766 1105.760248 455.127953 1094.111256 443.198128L702.944781 42.545428C694.411237 33.808093 681.584078 31.199114 670.439168 35.923692 659.292767 40.652847 652.025386 51.792951 652.025386 64.148953L652.025386 264.92897C621.178162 274.705011 589.509201 279.651077 557.616536 279.651077 496.336686 279.651077 432.193431 261.514994 366.971925 225.745377 313.563456 196.453915 259.382464 155.400654 205.939694 103.728167 113.805163 14.643996 55.440916-75.960044 54.862269-76.865851 49.248802-85.647486 39.778687-90.68826 29.904413-90.68826 27.073818-90.68826 24.207431-90.274304 21.390258-89.414317 8.745043-85.555838 0.078769-73.648924 0.078769-60.135077 0.077278 97.101848 27.60325 232.455713 81.887145 342.170385 127.60767 434.575355 192.505552 509.530092 274.779231 564.957189 338.100749 607.615859 411.154861 638.440937 491.916305 656.575493Z"  horiz-adv-x="1103" />

    
    <glyph glyph-name="menu" unicode="&#58983;" d="M844.8 12.8l-256 0c-19.2 0-38.4 19.2-38.4 38.4l0 256c0 19.2 19.2 38.4 38.4 38.4l256 0c19.2 0 38.4-19.2 38.4-38.4l0-256C883.2 32 864 12.8 844.8 12.8zM844.8 416l-256 0c-19.2 0-38.4 19.2-38.4 38.4l0 256c0 19.2 19.2 38.4 38.4 38.4l256 0c19.2 0 38.4-19.2 38.4-38.4l0-256C883.2 435.2 864 416 844.8 416zM435.2 12.8l-256 0c-19.2 0-38.4 19.2-38.4 38.4l0 256c0 19.2 19.2 38.4 38.4 38.4l256 0c19.2 0 38.4-19.2 38.4-38.4l0-256C480 32 460.8 12.8 435.2 12.8zM435.2 416l-256 0c-19.2 0-38.4 19.2-38.4 38.4l0 256c0 19.2 19.2 38.4 38.4 38.4l256 0c19.2 0 38.4-19.2 38.4-38.4l0-256C480 435.2 460.8 416 435.2 416z"  horiz-adv-x="1024" />

    
    <glyph glyph-name="QR" unicode="&#58937;" d="M64-23.3c0-22.5 18.2-40.7 40.7-40.7h285.1v325.8h-325.8v-285.1zM187 139.8h81.5v-81.5h-81.5v81.5zM471.3 98.9h81.5v-162.9h-81.5zM64 424.7h162.9v-81.5h-162.9zM471.3 424.7h-162.9v-81.4h162.9v-162.9h81.4v407.2h-81.4zM634.2 261.8h162.9v-162.9h-162.9zM389.8 832h-285.1c-22.5 0-40.7-18.2-40.7-40.7v-285.1h325.8v325.8zM268.5 628.5h-81.5v81.5h81.5v-81.5zM919.3 832h-285.1v-325.8h325.8v285.1c0 22.5-18.2 40.7-40.7 40.7zM838.6 628.5h-81.5v81.5h81.5v-81.5zM471.3 832h81.5v-162.9h-81.5zM715.6 424.7h244.4v-81.5h-244.4zM878.5 17.5h-244.3v-81.5h285.1c22.5 0 40.7 18.2 40.7 40.7v285.1h-81.5v-244.3z"  horiz-adv-x="1024" />

    
    <glyph glyph-name="weixuanzhong-01" unicode="&#58906;" d="M511.805 832.079c-247.423 0-447.999-200.576-447.999-448s200.576-448 447.999-448c247.424 0 448.001 200.576 448.001 448 0 247.423-200.577 448-448.001 448z m0-856c-225.332 0-407.999 182.668-407.999 408s182.667 408 407.999 408c225.332 0 408.001-182.667 408.001-408s-182.669-408-408.001-408z"  horiz-adv-x="1024" />

    
    <glyph glyph-name="icons-" unicode="&#58997;" d="M376.367927 311.039291c-22.346961-2.333138-38.35147-21.816888-38.35147-40.443107 0-18.671245 17.992793-31.568996 40.35101-28.956496 22.26612 2.541893 40.33873 19.760043 40.33873 38.36375 0 18.694781-16.686031 33.485649-42.33827 31.035853zM433.080579 326.43084c-7.66047-5.547343-9.231245-16.177448-5.062295-22.786983 3.999081-6.746658 13.311167-7.532557 20.87033-1.895163 7.395434 5.823636 10.272971 15.992229 6.26161 22.786983-3.997034 6.609535-13.195533 8.529257-22.069645 1.895163zM510.824221 832.360588c-245.614977 0-445.12694-199.256136-445.12694-445.031773 0-245.686608 199.511963-444.781062 445.12694-444.781062 245.800195 0 445.032796 199.095477 445.032796 444.781062 0 245.775636-199.2326 445.031772-445.032796 445.031773z m243.258303-556.610011c-49.052183-104.20327-210.81131-154.908092-330.661955-145.524374-113.932866 8.966209-260.405845 46.796816-275.544637 184.650487 0 0-7.994068 62.444191 52.531424 143.238308 0 0 87.055728 121.604592 188.485838 156.294672 101.489462 34.547841 113.309672-23.919782 113.309672-58.447157-5.383614-29.30442-15.47239-46.520523 22.626324-34.688033 0 0 99.754958 46.266743 140.811026 5.222955 33.116235-33.164331 5.464455-78.713736 5.464455-78.713736s-13.739932-15.228843 14.525832-20.728091c28.354791-5.640464 117.514437-46.938032 68.452021-151.305031z m-98.369401 287.883663c-10.862395 0-19.561521 8.782014-19.561522 19.552312 0 10.954493 8.699126 19.736507 19.561522 19.736506 0 0 122.288161 22.626323 107.682511-108.804055 0-0.785899-0.092098-1.384533-0.252757-2.078335-1.39886-9.290597-9.567913-16.433274-19.227923-16.433274-10.885931 0-19.736507 8.713452-19.736507 19.575848-0.001023 0 19.387559 87.818091-68.465324 68.450998z m206.569705-91.654466c-3.211135-47.329958-14.281261-30.759561-27.408233-30.759561-15.725146 0-28.423353 7.927553-28.423353 23.664979 0 13.657045 5.637394 25.096585 5.637394 25.096584 1.663896 5.755074 14.975063 40.213887-8.782014 93.52814-43.470047 73.05076-131.055848 73.512271-141.40966 69.331042-10.447956-4.067642-25.837458-6.472412-25.837458-6.472412-15.83157 0-28.51852 12.641925-28.518521 28.2893 0 13.124925 8.782014 24.010857 20.775163 27.408233 0 0 0.277316 0.045025 0.705058 0.137123 0.865717 0.184195 1.743714 0.324388 2.704598 0.416486 12.166087 2.356674 55.636135 18.995633 97.927333 9.106402 75.66326-17.656125 179.521676-97.757464 132.793422-239.746316h-0.163729zM432.29468 451.320245c-118.994138-5.454222-215.168548-69.193919-215.168548-148.693554 0-79.405491 96.17441-139.076522 215.168548-133.529179 119.064746 5.40715 215.432561 79.961146 215.432561 159.345148 0.001023 79.33693-96.367815 128.377856-215.432561 122.877585z m81.047898-199.927425c-36.431747-47.052642-108.536972-70.000284-178.549536-32.099069-33.301454 18.0941-32.101115 53.568033-32.101115 53.568033s-13.817704 112.131847 105.845677 126.112256c119.850645 13.935384 141.249001-100.528578 104.804974-147.58122z"  horiz-adv-x="1024" />

    
    <glyph glyph-name="email" unicode="&#58925;" d="M864 742.4H160c-51.2 0-96-44.8-96-96v-524.8c0-51.2 44.8-96 96-96h704c51.2 0 96 44.8 96 96V646.4c0 51.2-44.8 96-96 96zM512 339.2L166.4 678.4h684.8L512 339.2z m352-249.6H160c-19.2 0-32 12.8-32 32V627.2l358.4-358.4c6.4-6.4 12.8-6.4 25.6-6.4 6.4 0 19.2 0 25.6 6.4L896 633.6v-512c0-19.2-12.8-32-32-32z"  horiz-adv-x="1024" />

    
    <glyph glyph-name="share" unicode="&#59118;" d="M768.013965 192.000261a159.749941 159.749941 0 0 1-127.849953-63.799976L306.254136 319.000214a160.35994 160.35994 0 0 1 0 129.999952l333.909876 190.799929a159.529941 159.529941 0 1 1-27.539989 57.999979L268.80415 501.310146a159.999941 159.999941 0 1 1 0-234.619912l343.819873-196.459928A159.999941 159.999941 0 1 1 768.013965 192.000261z m0 639.999763a95.999964 95.999964 0 1 0-95.999964-95.999965 96.109964 96.109964 0 0 0 95.999964 95.999965zM277.364147 492.75015z m-2.769999 2.909999z m-2.849999 2.859999zM160.014191 288.000226a95.999964 95.999964 0 1 0 95.999964 95.999964 96.109964 96.109964 0 0 0-95.999964-95.999964z m111.699958-18.539993z m5.649998 5.789997z m-2.769999-2.919999zM768.013965-63.999644a95.999964 95.999964 0 1 0 95.999964 95.999965 96.109964 96.109964 0 0 0-95.999964-95.999965z"  horiz-adv-x="1024" />

    
    <glyph glyph-name="huodong" unicode="&#59057;" d="M895.5 271.6c-0.3-1.2-0.1-2.7-0.5-3.9-0.1-0.5-0.5-0.8-0.6-1.3-0.2-0.7-0.2-1.5-0.5-2.2-69.4-166.6-220.8-264.5-380.3-264.5-159.6 0-310.9 98.1-380.4 264.8-0.3 0.7-0.5 2.2-0.5 2.2s-0.5 0.8-0.6 1.3c-0.4 1.2-0.3 2.5-0.5 3.8-0.4 2.3-0.8 6.7-0.8 6.7s0.3 4.5 0.8 6.7c0.2 1.3 0.1 2.6 0.5 3.9 0.1 0.5 0.4 0.8 0.6 1.2 0.3 0.7 0.2 1.5 0.5 2.2C202.7 459.1 354 557 513.6 557c159.6 0 310.9-98.1 380.3-264.7 0.3-0.7 0.3-1.5 0.5-2.3 0.1-0.5 0.4-0.8 0.6-1.3 0.4-1.2 0.3-2.6 0.5-3.8 0.4-2.2 0.8-4.5 0.8-6.8 0-2-0.4-4.2-0.8-6.5zM577.4 388.3c-17 0-32.5-6.9-44-18.1-2.1-2.1-19.7-20.6-19.7-20.6L493.9 370c-11.5 11.3-27 18.2-44.1 18.2-35.2 0-74.3-40.7-74.3-77 0-21.6 10.7-37.6 19.1-47l100.8-93.9c14.8-15.3 21.7-15.3 36.5 0l100.7 93.9c11.2 14.4 19.2 25.1 19.2 47-0.1 36.5-39.2 77.1-74.4 77.1zM805.5 531c-14.6-14.5-38.3-14.5-52.9 0-14.7 14.5-14.7 38 0 52.5l52.9 52.6c14.6 14.5 38.3 14.5 52.9 0 14.7-14.5 14.7-38.1 0-52.6L805.5 531z m-291.3 85.8c-20.7 0-37.4 16.7-37.4 37.1v74.3c0 20.5 16.8 37.2 37.4 37.2 20.7 0 37.5-16.7 37.5-37.2v-74.3c0-20.5-16.8-37.1-37.5-37.1zM222.9 531l-53 52.5c-14.6 14.5-14.6 38 0 52.6 14.6 14.5 38.4 14.5 53 0l52.9-52.6c14.6-14.5 14.6-38 0-52.5-14.6-14.6-38.3-14.6-52.9 0z"  horiz-adv-x="1024" />

    
    <glyph glyph-name="caidan" unicode="&#58882;" d="M905.2 751.1h-785c-31.3 0-56.7-25.6-56.7-57.3v-7.7c0-31.6 25.4-36.4 56.7-36.4h785c31.3 0 56.7 4.7 56.7 36.4v7.7c0 31.7-25.4 57.3-56.7 57.3zM800.7 436.2H120.2c-31.3 0-56.7-25.6-56.7-57.3v13.2c0-31.6 25.4-57.3 56.7-57.3h680.5c31.3 0 56.7 25.6 56.7 57.3v-13.2c0 31.6-25.4 57.3-56.7 57.3z m-104.4-315h-576c-31.3 0-56.7-25.6-56.7-57.3v-7.7c0-31.6 25.4-36.4 56.7-36.4h576c31.3 0 56.7 4.7 56.7 36.4V64c0 31.6-25.4 57.2-56.7 57.2z"  horiz-adv-x="1024" />

    
    <glyph glyph-name="jigou1" unicode="&#59180;" d="M773.12 541.013333v-573.44h-52.906667V853.333333h-416.426666v-885.76H250.88v573.44h-208.213333v-626.346666h938.666666v626.346666h-208.213333z m-677.546667-52.906666h104.106667v-52.906667h-104.106667v52.906667z m0-157.013334h104.106667v-52.906666h-104.106667v52.906666z m0-155.306666h104.106667v-52.906667h-104.106667v52.906667z m312.32 573.44h208.213334v-52.906667h-208.213334v52.906667z m0-157.013334h208.213334v-52.906666h-208.213334v52.906666z m0-155.306666h208.213334v-52.906667h-208.213334v52.906667z m0-469.333334v261.12h208.213334v-261.12h-208.213334z m418.133334 520.533334h104.106666v-52.906667h-104.106666v52.906667z m0-157.013334h104.106666v-52.906666h-104.106666v52.906666z m0-155.306666h104.106666v-52.906667h-104.106666v52.906667z"  horiz-adv-x="1024" />

    
    <glyph glyph-name="web_xuanzhong" unicode="&#58955;" d="M846.445 831.255H167.322c-59.231 0-107.693-48.461-107.693-107.692v-679.125c0-59.23 48.462-107.692 107.693-107.692h786.816V723.563c0 59.23-48.462 107.692-107.693 107.692zM801.734 575.69L473.947 129.87a52.791 52.791 0 0 0-41.278-21.486h-1.167a52.7 52.7 0 0 0-41.052 19.634l-177.027 219.6c-18.249 22.645-14.686 55.825 7.948 74.105 22.685 18.274 55.865 14.711 74.108-7.973l134.104-166.311 287.274 390.695c17.225 23.457 50.255 28.47 73.687 11.242 23.43-17.232 28.461-50.224 11.19-73.687z"  horiz-adv-x="1024" />

    
    <glyph glyph-name="like" unicode="&#59011;" d="M223.3 376.3v-400h-100v400h100M263.3 416.3h-180v-480h180v480zM494.1 791.7c2.5 0 5.2-0.1 8-0.4 35.6-3.5 60.9-15.1 77.2-35.6 11.4-14.3 18.9-33.5 22.2-57.2 2.8-20.1 2.6-42.8-0.5-67.6-6.5-50.3-7.6-90.6-3.2-119.8 8.1-54.6 36.6-66.4 52.9-68.6 4.8-0.6 9.9-1 15.8-1 16.9 0 37.8 2.7 61.9 5.7 28.6 3.6 60.9 7.8 90.6 7.8 44.8 0 63.6-9.6 71.5-17.7 2.7-2.8 10.9-11.2 10.2-36.3-0.6-21.4-2.3-41.8-4-61.5-1.7-19.9-3.3-38.8-3.6-57.2-1.6-103.4-6.6-154.9-17.9-183.7-21.9-55.9-47.6-69.8-83.1-89-4.8-2.6-9.7-5.2-14.7-8.1-29-16.3-64.5-18.7-83.1-18.7-10 0-16.5 0.7-17.3 0.8l-2.1 0.3h-2.5l-409.2 1.8v370.6c36.5 17.5 100.9 57 148 133.8 36.6 59.7 41 131.1 44.9 194.1 2.2 35.7 4.3 69.5 12.3 90.1 2.6 6.6 5.5 11.2 8.7 13.5 3.6 2.6 9.3 3.9 17 3.9M494.1 831.7c-119.9 0-43.3-200.5-116.9-320.6-60.8-99.3-153.9-128.1-153.9-128.1v-437.2l449-2s8.6-1.1 22.1-1.1c24.9 0 66.6 3.6 102.7 23.9 42.6 24 84.8 39.1 115.4 117.3 14 35.7 19 92.4 20.6 197.7 0.5 34.8 6.4 73.9 7.5 118.3 2 77.2-56.2 95.1-121.7 95.1-56.9 0-119.3-13.5-152.5-13.5-3.9 0-7.4 0.2-10.4 0.6-16.4 2.2-28.4 42.9-15.4 143.7 9.6 74.2 2.1 192-134.7 205.3-4.1 0.4-8.1 0.6-11.8 0.6z"  horiz-adv-x="1024" />

    
    <glyph glyph-name="xihuan" unicode="&#59503;" d="M523.733333 54.976l33.173334 32.576 99.690666 97.813333c70.976 69.632 120.32 117.973333 138.709334 135.893334 59.008 57.514667 93.248 121.28 99.626666 184.234666 6.250667 61.44-15.488 119.744-61.589333 164.672-44.992 43.84-98.88 61.909333-157.034667 52.906667-49.365333-7.616-101.034667-34.624-150.016-78.848a21.333333 21.333333 0 0 0-28.586666 0c-48.981333 44.224-100.650667 71.232-150.016 78.869333-58.154667 8.96-112.042667-9.088-157.034667-52.928-46.101333-44.928-67.84-103.210667-61.610667-164.693333 6.4-62.933333 40.64-126.72 99.648-184.213333a100207.573333 100207.573333 0 0 0 145.92-142.826667l24.256-23.765333L512 43.477333l11.733333 11.498667z m-11.733333-11.52l-1.493333-1.429333A2.133333 2.133333 0 0 0 512 42.666667c0.512 0 1.045333-0.213333 1.493333-0.64l-1.493333 1.450666z m157.781333 721.792c71.637333 11.093333 138.901333-11.477333 193.344-64.533333 55.317333-53.930667 81.834667-124.992 74.282667-199.530667-7.466667-73.642667-46.549333-146.368-112.32-210.474667-18.346667-17.898667-67.669333-66.218667-138.453333-135.637333-31.829333-31.232-65.706667-64.448-99.84-97.984L553.6 24.533333l-13.184-12.949333a40.554667 40.554667 0 0 0-56.832 0l-114.602667 112.64-24.213333 23.722667a677626.346667 677626.346667 0 0 1-145.856 142.762666C133.141333 354.816 94.08 427.52 86.613333 501.184c-7.552 74.538667 18.944 145.6 74.282667 199.530667 54.442667 53.056 121.706667 75.605333 193.344 64.533333 53.162667-8.213333 107.093333-34.688 157.781333-76.949333 50.709333 42.24 104.618667 68.736 157.781334 76.949333z"  horiz-adv-x="1024" />

    
    <glyph glyph-name="shangwuqianbiqian" unicode="&#58994;" d="M689.516 100.795c-7.326-4.884-15.107-9.347-23.525-13.509-47.619-23.525-111.591-37.398-182.041-37.489-70.45 0.091-134.205 13.962-181.98 37.489-8.293 4.193-16.044 8.624-23.494 13.509-15.862-14.656-23.132-29.614-22.83-42.34-0.876-20.538 19.332-47.411 61.374-68.067 41.587-20.596 101.124-33.899 166.931-33.84 65.929-0.061 125.435 13.239 166.897 33.84 42.161 20.658 62.277 47.532 61.493 68.067 0.604 12.726-6.907 27.687-22.83 42.34z m-57.934 451.268c41.379-20.446 101.063-33.957 166.931-33.957s125.28 13.509 166.748 33.957c42.281 20.719 62.157 47.619 61.555 68.099 0.604 20.479-19.271 47.26-61.555 68.067-41.47 20.414-100.91 33.867-166.748 33.867h-0.358c-65.867 0-125.189-13.452-166.569-33.867-42.221-20.783-62.188-47.589-61.555-68.067-0.604-20.479 19.332-47.382 61.555-68.099zM91.886 604.057c0.935-0.635 1.719-0.967 2.742-1.599 41.47-20.385 101.034-33.867 166.807-33.686 65.867-0.181 125.404 13.3 166.931 33.686 0.876 0.635 1.567 0.935 2.565 1.599 40.324 20.446 59.682 46.414 58.93 66.531 0.753 20.479-19.392 47.26-61.493 67.977-41.5 20.567-101.063 33.957-166.931 33.84-65.776 0.119-125.375-13.271-166.807-33.84-42.252-20.719-62.369-47.501-61.493-67.977-0.876-20.115 18.484-46.022 58.748-66.531z m0-133.183c0.935-0.358 1.719-0.848 2.742-1.294 41.47-20.567 101.034-33.867 166.807-33.867 10.86 0 21.627 0.358 32.059 1.085 1.987 0.119 3.861 0.304 5.759 0.358 10.315 0.907 20.238 1.868 30.132 3.348h0.091c29.013 4.314 55.613 11.158 78.446 19.993 0.091 0 0.119 0.119 0.208 0.119 0.304 0.119 0.662 0.24 0.996 0.451 6.666 2.565 13.18 5.428 19.207 8.503 0.876 0.27 1.567 0.935 2.565 1.294 40.324 20.596 59.682 46.596 58.93 66.715 0.484 12.636-7.118 27.596-22.862 42.194-7.539-4.765-15.018-9.437-23.374-13.393-47.952-23.525-111.947-37.37-182.191-37.427-70.361 0.061-134.33 13.904-182.099 37.427-8.293 3.949-15.982 8.624-23.433 13.3-15.743-14.508-23.281-29.494-22.77-42.103-0.693-20.115 18.517-46.111 58.778-66.715z m617.776-131.915c-0.091 0.24-0.091 0.304-0.208 0.358-0.876 2.505-2.201 5.218-3.649 7.781h-0.091a56.18 56.18 0 0 1-5.099 7.539c-0.181 0.181-0.24 0.24-0.24 0.331h-0.061c-9.951 13.088-26.269 26.449-49.491 37.669-41.47 20.719-101.002 34.139-166.718 34.111-11.188 0-21.898-0.604-32.545-1.355-1.84-0.15-3.649-0.394-5.579-0.576-50.483-3.829-95.483-15.652-128.99-32.178-22.889-11.129-38.907-24.278-49.042-37.186-0.813-0.967-1.599-2.051-2.354-3.078-0.783-1.263-1.84-2.537-2.595-3.949a56.607 56.607 0 0 1-3.772-6.907c-0.331-0.635-0.394-1.263-0.576-1.9-0.876-1.987-1.355-4.012-1.959-6.004-0.15-0.635-0.208-1.294-0.358-1.929-0.484-2.354-0.848-4.731-0.693-6.937-0.15-2.384 0.208-4.615 0.576-7.118 0.27-0.604 0.358-1.536 0.513-2.323 0.358-1.39 0.935-2.955 1.421-4.432 0.848-2.443 2.08-4.765 3.41-7.326 0.15-0.331 0.484-0.662 0.545-0.935 8.655-15.139 25.786-31.034 52.479-44.576 0.848-0.358 1.567-0.813 2.471-1.325 4.854-2.505 10.284-4.765 15.502-6.997 1.868-0.753 3.772-1.39 5.61-2.08a580.743 580.743 0 0 1 11.282-4.314c2.323-0.635 4.731-1.421 7.238-2.141 3.5-0.907 7.056-2.258 10.676-3.165 2.835-0.813 5.636-1.658 8.444-2.258 3.561-0.783 7.027-1.778 10.558-2.505 3.135-0.662 6.393-1.453 9.682-1.987 3.197-0.662 6.633-1.236 10.161-1.9 3.649-0.545 7.209-1.206 10.736-1.658 3.107-0.635 6.275-0.876 9.437-1.236 4.13-0.484 8.203-1.114 12.394-1.453 1.987-0.15 4.163-0.208 6.183-0.513 12.847-1.055 25.692-1.658 39.236-1.658 65.716 0 125.25 13.271 166.718 33.899 16.015 7.781 28.983 16.589 38.663 25.543 2.866 2.595 5.666 5.399 7.935 8.174 1.778 2.051 2.955 3.979 4.523 5.974 0.545 0.662 1.178 1.421 1.658 2.141 0.996 1.567 1.84 3.165 2.742 4.675 0.576 0.876 1.147 1.9 1.536 2.895l0.091 0.119c0 0.091 0 0.091 0.119 0.27 0.484 1.294 0.996 2.505 1.478 3.772 0.576 1.453 0.996 2.625 1.355 4.069 0.27 0.996 0.635 2.171 0.753 3.26 0.576 2.354 0.693 4.731 0.635 7.181h0.061c0 2.201-0.15 4.581-0.604 7.056-0.484 2.323-1.294 4.825-2.201 7.087zM55.905 446.836c-15.743-14.598-23.281-29.677-22.77-42.374-0.876-20.628 19.241-47.382 61.493-68.006 32.997-16.439 77.298-28.078 127.15-32.178-1.567 6.516-2.742 13.212-2.804 20.479 0.061 3.891 0.422 7.781 0.935 11.705 0.181 1.206 0.635 2.537 0.813 3.918a38.548 38.548 0 0 0 1.778 7.181c0.27 1.478 0.724 3.015 1.263 4.523 0.693 2.051 1.507 4.099 2.354 6.244 0.635 1.453 1.263 3.015 2.018 4.403 0.724 1.658 1.536 3.26 2.595 4.884 5.7 10.225 13.362 19.697 22.529 28.378-67.103 1.055-128.023 14.508-173.926 37.37A211.126 211.126 0 0 0 55.9 446.842z m948.201 82.453c-7.598-4.643-15.382-9.285-23.494-13.362C932.72 492.371 868.873 478.5 798.544 478.5c-70.45 0-134.3 13.873-182.162 37.427-8.324 4.099-15.982 8.719-23.403 13.362-15.77-14.419-23.309-29.582-22.708-42.252-0.545-9.107 3.561-19.818 11.762-30.308 31.337-6.485 59.713-15.891 83.995-27.956 20.567-9.922 38.333-22.226 52.479-36.733 24.914-4.403 51.872-6.967 80.042-6.907 65.867-0.091 125.28 13.393 166.748 33.867a31.12 31.12 0 0 1 2.774 1.507h-0.119c40.352 20.479 59.502 46.475 58.899 66.503 0.451 12.699-6.967 27.897-22.739 42.281z m0-132.998c-7.598-4.884-15.382-9.261-23.795-13.393-47.589-23.525-111.436-37.55-181.77-37.55-18.187 0-36.282 0.935-53.411 2.804 2.201-7.476 3.743-15.291 4.039-23.403 0-1.778-0.304-3.165-0.422-4.825-0.061 0-0.119 0-0.304-0.061-1.567-23.494-12.003-43.762-28.349-60.892v-0.24c24.4-4.225 50.757-6.694 78.446-6.694 65.867 0 125.28 13.3 166.748 33.899 0.935 0.545 1.84 1.147 2.774 1.421v0.061c40.23 20.628 59.385 46.444 58.778 66.503 0.451 12.758-6.967 27.775-22.739 42.374zM243.617 262.99c-63.301 2.171-120.489 15.652-164.249 37.157-8.324 4.099-16.044 8.777-23.494 13.422-15.743-14.656-23.281-29.554-22.77-42.221-0.876-20.596 19.241-47.44 61.493-68.067 33.055-16.379 77.298-27.863 127.15-32.09-1.567 6.516-2.742 13.271-2.895 20.297 0.513 26.3 11.909 48.193 29.829 66.503a204.647 204.647 0 0 0-5.068 5.006z m466.526-58.873a53.452 53.452 0 0 1-1.69 4.345c-0.753 1.9-1.536 3.681-2.656 5.428-0.545 0.935-1.294 2.08-1.9 3.078-3.71 5.579-8.234 11.188-14.419 16.983-3.681-2.291-7.326-4.643-11.158-6.967h-0.119c-3.829-1.987-8.083-4.403-12.244-6.485-6.004-3.047-12.332-5.823-18.91-8.503-1.599-0.635-3.197-1.029-4.884-1.747-5.185-1.987-10.375-3.979-15.804-5.73-1.029-0.576-2.354-0.724-3.378-1.147-6.094-1.868-12.489-3.801-18.788-5.579a16.75 16.75 0 0 1-1.9-0.451c-7.056-1.69-14.145-3.44-21.594-4.794-29.888-6.094-62.457-9.652-96.601-9.652-30.548 0-59.595 2.895-86.887 7.843-17.493 3.015-34.32 7.056-49.916 12.003-0.358 0-0.848 0.24-1.355 0.27-7.087 2.411-13.962 4.675-20.688 7.57-0.876 0.181-1.719 0.394-2.443 0.724a235.583 235.583 0 0 0-20.87 9.199c-8.293 4.284-16.044 8.532-23.494 13.452-15.862-14.598-23.132-29.709-22.83-42.403-0.15-1.987 0.15-4.372 0.576-6.546 0.119-0.935 0.358-2.113 0.662-3.107 0.181-0.967 0.604-1.747 0.876-2.955 5.941-18.125 25.337-38.814 59.262-55.431 41.587-20.688 101.124-33.84 166.931-33.84 65.929 0 125.435 13.18 166.897 33.84 28.802 14.235 47.169 30.972 55.674 46.988 0.422 0.783 0.996 1.599 1.206 2.233 0.783 1.507 1.39 3.26 1.959 4.675 0.451 1.147 0.876 2.505 1.236 3.681 0.331 1.085 0.693 2.201 0.876 3.587 0.451 2.258 0.604 4.581 0.604 6.842 0 2.742-0.358 5.49-1.029 8.719-0.15 1.206-0.724 2.443-1.206 3.891z m293.963 59.112c-7.598-4.974-15.382-9.5-23.494-13.572-47.892-23.403-111.739-37.337-182.068-37.337-18.187 0-36.065 0.813-53.411 2.774 2.201-7.57 3.743-15.169 4.039-23.587-0.545-25.575-11.615-47.472-29.075-65.957 24.4-4.069 50.757-6.546 78.446-6.546 65.867 0 125.28 13.271 166.748 33.957 42.281 20.567 62.157 47.319 61.555 67.889 0.451 12.665-6.967 27.714-22.739 42.374z"  horiz-adv-x="1040" />

    
    <glyph glyph-name="top1" unicode="&#58902;" d="M832 466.32L526.08 777.76a18.4 18.4 0 0 1-27.6 0L192.56 460.8a19.52 19.52 0 1 1 27.6-27.6l272.8 284v-713.84a19.28 19.28 0 1 1 38.56 0V712l267.44-273.2a18.4 18.4 0 0 1 27.6 0c13.44 8.24 13.44 22 5.44 27.52z"  horiz-adv-x="1024" />

    
    <glyph glyph-name="qr-code" unicode="&#58901;" d="M53.989 873.762h393.236c39.983-3.903 30.344-73.419 30.344-118.577v-215.01c0-46.735 8.913-104.013-22.429-117.285-20.415-8.641-75.199-2.604-101.61-2.604H145.046c-48.2 0-114.006-11.354-121.404 29.974V843.793c5.39 14.658 14.87 25.278 30.347 29.969m54.109-88.61v-280.164H391.8V789.06H109.42c-1.546-0.211-1.44-2.058-1.322-3.91m473.717 88.61h393.236c16.04-5.876 27.058-16.713 30.346-35.182v-383.107c-3.6-15.925-12.017-29.514-27.71-33.879-25.647-7.13-68.274-1.307-98.969-1.307H676.827c-30.447 0-75.57-6.33-100.287 1.307-34.895 10.78-25.069 78.04-25.069 125.095v200.68c0 54.319-12.078 118.803 30.344 126.394m54.104-88.61v-280.164h283.713V789.06H637.238c-1.535-0.211-1.432-2.058-1.319-3.91m-398.507-82.095c39.51 7.365 70.582-18.998 71.257-54.726 0.884-47.126-47.848-73.008-85.77-53.43-43.393 22.396-40.539 97.902 14.513 108.156m527.825 0c93.073 17.172 91.288-128.38 0-113.365-58.09 9.55-59.967 102.308 0 113.365m-320.65-811.833H55.312c-16.163 4.9-27.078 14.969-31.669 31.277V314.73400000000004c3.842 11.482 12.715 24.868 26.388 28.67 25.833 7.176 68.025 1.303 98.974 1.303H350.89c29.838 0 73.265 6.575 100.287-1.304 36.565-10.656 26.392-76.828 26.392-123.795v-207.19c0-50.69 11.055-116.667-32.982-121.195m-336.49 364.876v-280.171H391.8V260.009H109.42c-1.546-0.226-1.44-2.065-1.322-3.91m897.298 53.42v-109.457c-3.075-36.922-0.44-79.487-1.314-118.582H723.01v63.847c-26.395 3.05-58.5 0.442-87.086 1.314-3.082-82.535-0.44-170.708-1.324-255.412h-51.466c-44.246 8.763-31.668 74.327-31.668 126.402V219.60799999999995c0 30.37-6.226 75.908 1.32 100.343 9.005 29.158 48.036 24.76 87.094 24.76h191.335v-173.312h88.415c0.874 57.338-1.758 118.147 1.312 173.311 42.549 2.486 81.956 1.872 84.454-35.19M244.011 175.308c42.192 4.61 77.063-35.435 60.704-79.497-22.69-61.066-131.156-38.11-110.846 39.096 5.61 21.343 21.835 37.301 50.142 40.401m574.01-284.085H723.01c0.879 33.456-1.758 70.377 1.324 101.65h93.688v-101.65h-0.001m187.375 101.649v-66.463c-3.67-18.526-14.635-29.84-31.668-35.182h-67.295c0.877 33.45-1.758 70.368 1.321 101.643h97.642v0.002m0 0"  horiz-adv-x="1024" />

    
    <glyph glyph-name="dianzan" unicode="&#58947;" d="M592.9 800c-45 0-84.2-30.7-92.5-74.2 0 0-13.4-68.1-20.4-92.6-11.5-40.4-51.8-85-80.9-99.3-22-10.9-103.7-11-108.8-11H179.2c-30.6 0-55.5-24.8-55.5-55.5v-444c0-30.6 24.8-55.5 55.5-55.5h512.3c82.4 0 152.4 60.3 164.6 141.8L899 395.5c10.1 67.1-41.9 127.4-109.8 127.4H662.9s18.7 62.1 28.3 167c4.8 53.1-32.9 103.8-88.1 109.5-3.4 0.4-6.8 0.6-10.2 0.6zM345.6 23.5V469.1c36.4 2.4 62.6 7.5 78.1 15.2 40.9 20.2 93.1 75.8 109.6 133.8 7.4 25.9 20 89.9 21.5 97.4 3.2 16.8 19.2 29.1 38 29.1 1.5 0 3-0.1 4.5-0.2 26.4-2.7 40.5-27.7 38.6-49.3-8.8-97.1-26-155.6-26.2-156l-21.6-71.5H789.2c16.4 0 31.4-6.9 42.1-19.3 10.7-12.4 15.3-28.2 12.8-44.5L801.3 118c-8.2-54.8-54.4-94.5-109.8-94.5H345.6z m-166.4 0v444h110.9v-444H179.2z"  horiz-adv-x="1024" />

    
    <glyph glyph-name="zuo" unicode="&#58899;" d="M655 846c12.284 0 24.568-4.687 33.941-14.059 18.745-18.745 18.745-49.138 0-67.883l-380.06-380.06 380.06-380.058c18.745-18.745 18.745-49.138 0-67.883-18.746-18.744-49.137-18.744-67.883 0l-414 413.999a48.002 48.002 0 0 0 0.001 67.884l414 414.001C630.432 841.313 642.716 846 655 846z"  horiz-adv-x="1024" />

    
    <glyph glyph-name="dian" unicode="&#58885;" d="M512 384m-512 0a512 512 0 1 1 1024 0 512 512 0 1 1-1024 0Z"  horiz-adv-x="1024" />

    
    <glyph glyph-name="you" unicode="&#59164;" d="M308.105051-79.90303c11.636364 0 22.755556 4.783838 31.030303 13.317171L744.339394 350.383838c17.842424 18.359596 17.842424 48.355556 0 66.844445L339.135354 834.456566c-8.274747 8.533333-19.393939 13.317172-31.030303 13.317171s-22.626263-4.783838-31.030304-13.317171l-0.387878-0.517172c-17.454545-18.488889-17.325253-48.226263 0.387878-66.456566l372.751516-383.612121-372.751516-383.612121c-17.971717-18.488889-17.971717-48.355556 0-66.844445 8.40404-8.533333 19.393939-13.317172 31.030304-13.317171z"  horiz-adv-x="1024" />

    
    <glyph glyph-name="deng" unicode="&#59347;" d="M124.928011 512.512011c0 105.471997 37.375999 195.071994 111.615997 270.335992C310.784006 858.624001 401.408003 896 506.88 896c105.983997 0 196.095994-37.375999 271.359992-112.639997 75.263998-75.263998 112.639997-165.375995 112.639997-270.335992 0-14.336-0.512-29.695999-2.048-44.031998-2.56-2.56-2.048-7.68-2.048-9.728l-6.144-35.839999c-2.56 0-2.048-3.584-2.048-6.144a1000.295971 1000.295971 0 0 0-11.775999-35.839999v-2.048l-2.048-2.048c-5.632-14.336-10.24-27.647999-15.872-37.887999 0-1.536-0.512-2.048-2.048-2.048-6.656-13.312-13.824-26.111999-22.015999-37.887999-8.192-11.776-16.384-24.063999-26.111999-35.839998l-1.024-1.024-1.024-1.024c-8.192-9.728-17.407999-18.431999-28.16-28.16 0 0-1.024-0.512-3.071999-2.048-5.12-3.584-5.632-6.656-10.752-11.775999-2.56 0-6.144-1.536-6.144-4.096L729.599994 200.70402l-4.096-3.072-3.072-2.047999c-11.776-9.728-20.479999-19.967999-26.111999-31.744-5.632-11.776-10.24-20.479999-15.872-26.111999-5.632-5.632-15.36-8.192-29.695999-8.192H363.520004c-14.336 0-24.575999 2.56-29.695999 8.192-5.632 5.632-10.752 13.824-16.895999 26.111999-6.144 11.776-14.336 22.527999-25.088 31.744-1.536 0-2.56 0.512-4.095999 2.047999l-3.072 3.072-18.944 14.848-6.144 4.096-8.191999 8.192-6.144 6.143999-28.159999 28.16-1.024 1.024-1.024 1.024c-18.431999 24.063999-34.303999 47.615999-48.127999 73.727997-1.536 0-2.048 0.512-2.048 2.048-5.632 10.24-10.24 23.551999-15.871999 37.887999-1.536 0-2.048 0.512-2.048 2.048v2.048c-4.096 10.24-8.192 22.527999-11.776 35.839999 0 0-0.512 1.024-1.024 3.072l-1.024 3.072c-2.56 10.24-4.608 22.527999-6.144 35.839999 0 2.56-2.048 7.68-2.048 9.727999 0.512 13.824 0 28.671999 0 43.007999z m225.279994-446.975987h319.48799c18.431999 0 31.743999-13.312 31.743999-31.743999s-13.312-31.743999-31.743999-31.743999H350.208005c-18.431999 0-31.743999 13.312-31.743999 31.743999s13.312 31.743999 31.743999 31.743999z m13.823999-127.487996h289.279992l-117.759997-59.903998a71.172998 71.172998 0 0 0-57.855998 0l-113.663997 59.903998z m177.663995 766.463978c38.399999 0 74.751998-15.36 108.543997-47.103999 33.791999-31.231999 50.687999-70.143998 50.687998-116.735997 0-15.872 13.312-31.743999 31.744-31.743999s31.743999 15.872 31.743999 31.743999c0 69.119998-22.527999 124.415996-68.095998 165.887996-45.567999 41.471999-97.279997 61.951998-155.647996 61.951998-18.431999 0-31.743999-13.312-31.743999-31.743999 1.024-18.943999 14.336-32.255999 32.767999-32.255999z"  horiz-adv-x="1024" />

    
    <glyph glyph-name="xing" unicode="&#58985;" d="M1063.610315 510.166189a73.352436 73.352436 0 0 1-59.415473 49.879656L725.82235 602.590258l-125.432665 252.332378a73.352436 73.352436 0 0 1-131.667622 0L343.289398 602.590258 62.716332 560.045845a73.352436 73.352436 0 0 1-40.343839-125.065902L225.191977 235.82808l-48.045845-277.638968a73.352436 73.352436 0 0 1 106.361031-77.38682l250.86533 131.667622 250.865329-131.667622a73.352436 73.352436 0 0 1 106.361032 77.38682L843.553009 235.82808l202.819484 197.684814a73.352436 73.352436 0 0 1 17.237822 76.653295z"  horiz-adv-x="1069" />

    
    <glyph glyph-name="weixuanzhong" unicode="&#58993;" d="M505.856-49.664a402.432 402.432 0 1 0 402.944 402.944 402.944 402.944 0 0 0-402.944-402.944z m0 754.176a351.232 351.232 0 1 1 351.744-351.232 351.744 351.744 0 0 1-351.744 351.232z"  horiz-adv-x="1024" />

    
    <glyph glyph-name="jigou11" unicode="&#58942;" d="M512 896L45.44 657.28l469.76-240 466.56 238.72zM0 111.36L468.48-128V352L0 591.36z m555.52 237.44V-128L1024 111.36V588.16z"  horiz-adv-x="1024" />

    
    <glyph glyph-name="weixuanzhong1" unicode="&#58897;" d="M823.1-49.3H204c-67.6 0-122.7 55-122.7 122.7V692.5c0 67.6 55 122.7 122.7 122.7h619.1c67.6 0 122.7-55 122.7-122.7v-619.1c0-67.7-55.1-122.7-122.7-122.7zM204 757.8c-36 0-65.4-29.3-65.4-65.4v-619.1c0-36 29.3-65.4 65.4-65.4h619.1c36 0 65.4 29.3 65.4 65.4V692.5c0 36-29.3 65.4-65.4 65.4H204z"  horiz-adv-x="1024" />

    
    <glyph glyph-name="xuanzhong" unicode="&#58898;" d="M823.1-49.3H204c-67.6 0-122.7 55-122.7 122.7V692.5c0 67.6 55 122.7 122.7 122.7h619.1c67.6 0 122.7-55 122.7-122.7v-619.1c0-67.7-55.1-122.7-122.7-122.7zM204 757.8c-36 0-65.4-29.3-65.4-65.4v-619.1c0-36 29.3-65.4 65.4-65.4h619.1c36 0 65.4 29.3 65.4 65.4V692.5c0 36-29.3 65.4-65.4 65.4H204zM438.2 188.8h-0.5c-8.5 0.1-16.6 3.7-22.5 9.9L235.3 387.2c-12.1 12.7-11.7 32.9 1.1 45 12.7 12.1 32.9 11.7 45-1.1L439 266l307.5 301.9c12.5 12.3 32.7 12.1 45-0.4 12.3-12.5 12.1-32.7-0.4-45L460.5 197.9c-5.9-5.8-14-9.1-22.3-9.1z"  horiz-adv-x="1024" />

    
    <glyph glyph-name="clock-" unicode="&#58913;" d="M512-85.333333C276.352-85.333333 85.333333 105.685333 85.333333 341.333333S276.352 768 512 768s426.666667-191.018667 426.666667-426.666667-191.018667-426.666667-426.666667-426.666666z m0 85.333333c188.522667 0 341.333333 152.810667 341.333333 341.333333s-152.810667 341.333333-341.333333 341.333334S170.666667 529.856 170.666667 341.333333s152.810667-341.333333 341.333333-341.333333zM115.498667 631.168a42.666667 42.666667 0 0 0-60.330667 60.330667l149.333333 149.333333a42.666667 42.666667 0 0 0 60.330667-60.330667l-149.333333-149.333333z m853.333333 60.330667a42.666667 42.666667 0 0 0-60.330667-60.330667l-149.333333 149.333333a42.666667 42.666667 0 0 0 60.330667 60.330667l149.333333-149.333333z m-426.666667-380.330667A42.538667 42.538667 0 0 0 512 298.666667h-149.333333a42.666667 42.666667 0 1 0 0 85.333333h106.666666v170.666667a42.666667 42.666667 0 1 0 85.333334 0v-213.333334c0-11.776-4.778667-22.442667-12.501334-30.165333z"  horiz-adv-x="1024" />

    
    <glyph glyph-name="yuandian" unicode="&#58910;" d="M512.5 273.5c-60.8 0-110 49.2-110 110s49.2 110 110 110 110-49.2 110-110-49.2-110-110-110z"  horiz-adv-x="1024" />

    
    <glyph glyph-name="xingbienv" unicode="&#58936;" d="M863.7 479.8c0 194-157.7 351.7-351.7 351.7S160.3 673.8 160.3 479.8c0-183.1 140.8-334.3 320.4-350.2 0-0.5-0.5-1-0.5-1.5v-64.2H352.3c-17.4 0-31.8-14.4-31.8-31.8 0-17.9 14.4-31.8 31.8-31.8h127.9v-31.8c0-17.9 14.4-31.8 31.8-31.8s31.8 14.4 31.8 31.8v31.8h127.9c17.9 0 31.8 14.4 31.8 31.8 0 17.9-14.4 31.8-31.8 31.8H543.8V128c0 0.5-0.5 1-0.5 1.5 179.6 16 320.4 166.7 320.4 350.3zM512 191.7c-158.7 0-288 129.3-288 288s129.3 288 288 288 288-129.3 288-288-129.3-288-288-288z"  horiz-adv-x="1024" />

    
    <glyph glyph-name="xingbienan" unicode="&#58938;" d="M540.2 584c0 0.5 0.5 0.9 0.5 1.4V738.7l165.9-121.2c14-10.2 33.7-7.2 43.9 6.8 10.2 14 7.2 33.7-6.8 43.9L530.5 823.9c-10.8 8-25.5 8.1-36.5 0.4L271.4 668.6c-14.2-9.9-17.7-29.5-7.7-43.8 6.1-8.7 15.9-13.4 25.8-13.4 6.2 0 12.5 1.8 18 5.7l174.9 122.4V585c0-0.5 0.5-0.9 0.5-1.4C317.7 569 188.3 430.2 188.3 261.7 188.3 83.4 333.2-62 512-62s323.7 145.4 323.7 323.7c0 168.9-129.9 307.3-295.5 322.3zM512-2.7c-145.9 0-264.4 118.6-264.4 264.9 0 145.9 118.6 264.4 264.4 264.4S776.4 408 776.4 261.7c0-145.8-118.5-264.4-264.4-264.4z"  horiz-adv-x="1024" />

    
    <glyph glyph-name="weixuanzhong2" unicode="&#58932;" d="M192 704v-640h640V704H192z m0 64h640a64 64 0 0 0 64-64v-640a64 64 0 0 0-64-64H192a64 64 0 0 0-64 64V704a64 64 0 0 0 64 64z"  horiz-adv-x="1024" />

    
    <glyph glyph-name="icon_xuanzhong" unicode="&#58972;" d="M512 768c211.2 0 384-172.8 384-384S723.2 0 512 0 128 172.8 128 384 300.8 768 512 768m0 64C264 832 64 632 64 384s200-448 448-448 448 200 448 448S760 832 512 832zM512 384m-256 0a256 256 0 1 1 512 0 256 256 0 1 1-512 0Z"  horiz-adv-x="1024" />

    
    <glyph glyph-name="menu1" unicode="&#58881;" d="M120 683.8m-43.2 0a43.2 43.2 0 1 1 86.4 0 43.2 43.2 0 1 1-86.4 0ZM894.6 640.6H298.1c-23.8 0-43.2 19.4-43.2 43.2 0 23.8 19.4 43.2 43.2 43.2h596.5c23.8 0 43.2-19.4 43.2-43.2 0-23.7-19.4-43.2-43.2-43.2zM120 385.6m-43.2 0a43.2 43.2 0 1 1 86.4 0 43.2 43.2 0 1 1-86.4 0ZM894.6 342.4H298.1c-23.8 0-43.2 19.4-43.2 43.2 0 23.8 19.4 43.2 43.2 43.2h596.5c23.8 0 43.2-19.4 43.2-43.2 0-23.8-19.4-43.2-43.2-43.2zM120 87.3m-43.2 0a43.2 43.2 0 1 1 86.4 0 43.2 43.2 0 1 1-86.4 0ZM894.6 44.1H298.1c-23.8 0-43.2 19.4-43.2 43.2 0 23.8 19.4 43.2 43.2 43.2h596.5c23.8 0 43.2-19.4 43.2-43.2 0-23.7-19.4-43.2-43.2-43.2z"  horiz-adv-x="1024" />

    
    <glyph glyph-name="jigou2" unicode="&#58880;" d="M947.58570133-8.173505070000033H76.00715947c-24.08016853 0-43.5901152-19.50994667-43.5901152-43.6108544 0-24.0605216 19.50994667-43.569376 43.5901152-43.569376h871.55889386c24.08016853 0 43.5901152 19.50994667 43.5901152 43.569376-0.0207392 24.10090773-19.53068587 43.6108544-43.5704672 43.6108544zM130.47433707 105.14878826999995c-24.08016853 0-43.5901152-19.50994667-43.5901152-43.5901152s19.50994667-43.6108544 43.5901152-43.6108544h762.62344746c24.08125973 0 43.5901152 19.52959467 43.5901152 43.6108544s-19.50994667 43.5901152-43.5901152 43.5901152h-10.87706346v392.22917226h10.87706346c12.06027733 0 21.774864 9.7549728 21.774864 21.774864s-9.7549728 21.774864-21.774864 21.77486507H130.47433707c-12.0406304 0-21.774864-9.7549728-21.774864-21.77486507 0-12.0198912 9.7549728-21.774864 21.774864-21.774864h10.8978016v-392.20952533h-10.8978016v-0.01964693z m664.5661536 392.22917226v-392.20952533H664.31053227V497.37796053h130.7299584z m-217.9101888 0v-392.20952533H446.4003424V497.37796053h130.72995947z m-348.61941014 0h130.72995947v-392.20952533H228.51089173V497.37796053zM76.00715947 580.1102197299999h871.98786453c24.10090773 0 43.5901152 19.50994667 43.5901152 43.5901152 0 19.1421024-12.32661013 35.3654624-29.44829653 41.24333334L529.70346987 859.52793493a43.6741632 43.6741632 0 0 1-35.75404587 0L58.13013653 663.4329952c-18.75461013-8.448416-29.05971307-28.81521067-24.73399253-48.8960256 4.30607253-20.08081493 22.05975253-34.4267488 42.61101547-34.42674987z"  horiz-adv-x="1024" />

    
    <glyph glyph-name="kefu" unicode="&#58900;" d="M56 329.6v-107.2c0-44.8 35.2-80 80-80s80 35.2 80 80v107.2c0 44.8-35.2 80-80 80s-80-36.8-80-80z m737.6-204.8c-27.2 25.6-41.6 60.8-41.6 97.6v107.2c0 73.6 59.2 132.8 132.8 134.4-14.4 193.6-176 347.2-374.4 347.2-198.4 0-360-153.6-374.4-348.8 73.6 0 132.8-60.8 132.8-134.4v-107.2c0-73.6-59.2-134.4-134.4-134.4s-134.4 59.2-134.4 134.4v107.2c0 52.8 32 100.8 80 123.2 11.2 230.4 200 414.4 430.4 414.4 232 0 420.8-184 428.8-412.8 49.6-20.8 80-68.8 80-123.2v-107.2c0-43.2-20.8-84.8-56-108.8-35.2-25.6-81.6-32-121.6-16-51.2-52.8-113.6-92.8-182.4-116.8-1.6-51.2-43.2-91.2-94.4-91.2h-80c-51.2 0-94.4 41.6-94.4 94.4 0 51.2 41.6 94.4 94.4 94.4h80c33.6 0 64-17.6 80-44.8 56 16 107.2 48 148.8 91.2z m11.2 204.8v-107.2c0-44.8 35.2-80 80-80s80 35.2 80 80v107.2c0 44.8-35.2 80-80 80-43.2 0-80-36.8-80-80zM484.8-59.2h80c22.4 0 40 17.6 40 40s-17.6 40-40 40h-80c-22.4 0-40-17.6-40-40-1.6-22.4 17.6-40 40-40z m0 0"  horiz-adv-x="1028" />

    
    <glyph glyph-name="tiaozheng" unicode="&#58893;" d="M178.604651 669.767442H47.627907a47.627907 47.627907 0 0 0 0 95.255814h130.976744a47.627907 47.627907 0 0 0 0-95.255814zM1065.674419 669.767442H476.27907a47.627907 47.627907 0 0 0 0 95.255814h589.395349a47.627907 47.627907 0 0 0 0-95.255814zM330.418605 544.744186A175.627907 175.627907 0 1 0 506.046512 720.372093 175.806512 175.806512 0 0 0 330.418605 544.744186z m0 256A80.372093 80.372093 0 1 1 410.790698 720.372093 80.491163 80.491163 0 0 1 330.418605 800.744186zM1065.674419 354.232558h-130.976745a47.627907 47.627907 0 0 0 0 95.255814h130.976745a47.627907 47.627907 0 0 0 0-95.255814zM637.023256 354.232558H47.627907a47.627907 47.627907 0 0 0 0 95.255814h589.395349a47.627907 47.627907 0 0 0 0-95.255814zM782.883721 229.209302A175.627907 175.627907 0 1 0 958.511628 404.837209a175.806512 175.806512 0 0 0-175.627907-175.627907z m0 256A80.372093 80.372093 0 1 1 863.255814 404.837209 80.491163 80.491163 0 0 1 782.883721 485.209302zM1071.627907-2.976744h-327.44186a47.627907 47.627907 0 0 0 0 95.255814h327.44186a47.627907 47.627907 0 0 0 0-95.255814zM446.511628-2.976744H53.581395a47.627907 47.627907 0 0 0 0 95.255814h392.930233a47.627907 47.627907 0 0 0 0-95.255814zM592.372093-128a175.627907 175.627907 0 1 0 175.627907 175.627907A175.806512 175.806512 0 0 0 592.372093-128z m0 256a80.372093 80.372093 0 1 1 80.372093-80.372093A80.491163 80.491163 0 0 1 592.372093 128z"  horiz-adv-x="1119" />

    
    <glyph glyph-name="icon_border_like_24" unicode="&#58891;" d="M878.933333 584.5333330000001c12.8-25.6 17.066667-59.733333 17.066667-89.6 0-29.866667-4.266667-59.733333-17.066667-89.6-8.533333-25.6-25.6-51.2-42.666666-81.066666-29.866667-42.666667-68.266667-89.6-119.466667-132.266667-85.333333-76.8-204.8-149.333333-204.8-149.333333-81.066667 46.933333-149.333333 98.133333-204.8 149.333333-51.2 46.933333-89.6 89.6-119.466667 132.266667-17.066667 25.6-34.133333 55.466667-42.666666 81.066666-12.8 29.866667-17.066667 59.733333-17.066667 89.6 0 29.866667 4.266667 59.733333 17.066667 89.6 12.8 25.6 29.866667 51.2 51.2 72.533334s46.933333 38.4 76.8 46.933333c29.866667 17.066667 59.733333 21.333333 89.6 21.333333 42.666667 0 85.333333-12.8 123.733333-34.133333 8.533333-4.266667 17.066667-12.8 25.6-17.066667 8.533333 8.533333 17.066667 12.8 25.6 17.066667 38.4 21.333333 81.066667 34.133333 123.733333 34.133333 29.866667 0 64-4.266667 89.6-17.066666 29.866667-12.8 51.2-29.866667 76.8-46.933334 21.333333-25.6 38.4-46.933333 51.2-76.8z m-81.066666 42.666667c-17.066667 17.066667-38.4 29.866667-59.733334 38.4-25.6 12.8-51.2 17.066667-76.8 17.066667-34.133333 0-72.533333-8.533333-102.4-29.866667-8.533333-4.266667-12.8-8.533333-21.333333-12.8l-25.6-21.333333-25.6 21.333333c-8.533333 4.266667-12.8 8.533333-21.333333 12.8-29.866667 21.333333-64 29.866667-102.4 29.866667-25.6 0-51.2-4.266667-72.533334-12.8-21.333333-8.533333-42.666667-21.333333-59.733333-38.4-17.066667-17.066667-29.866667-38.4-42.666667-59.733334-12.8-25.6-17.066667-51.2-17.066666-76.8 0-25.6 4.266667-51.2 17.066666-76.8 8.533333-21.333333 21.333333-46.933333 38.4-72.533333 25.6-38.4 64-81.066667 110.933334-128 46.933333-42.666667 106.666667-85.333333 174.933333-128 12.8 8.533333 29.866667 21.333333 46.933333 29.866667 51.2 34.133333 93.866667 68.266667 128 98.133333 46.933333 42.666667 85.333333 85.333333 110.933334 128 17.066667 25.6 29.866667 46.933333 38.4 72.533333 8.533333 25.6 17.066667 51.2 17.066666 76.8 0 25.6-4.266667 51.2-17.066666 72.533334-8.533333 21.333333-21.333333 42.666667-38.4 59.733333z"  horiz-adv-x="1024" />

    
    <glyph glyph-name="icon_sloid_like_24" unicode="&#58915;" d="M878.933333 584.5333330000001c-12.8 25.6-29.866667 51.2-51.2 72.533334s-46.933333 38.4-76.8 46.933333c-25.6 17.066667-59.733333 21.333333-89.6 21.333333-42.666667 0-85.333333-12.8-123.733333-34.133333-8.533333-4.266667-17.066667-12.8-25.6-17.066667-8.533333 8.533333-17.066667 12.8-25.6 17.066667-38.4 21.333333-81.066667 34.133333-123.733333 34.133333-29.866667 0-59.733333-4.266667-89.6-17.066666-29.866667-12.8-55.466667-29.866667-76.8-51.2s-38.4-42.666667-51.2-72.533334c-12.8-25.6-17.066667-59.733333-17.066667-89.6 0-29.866667 4.266667-59.733333 17.066667-89.6 8.533333-25.6 25.6-51.2 42.666666-81.066666 29.866667-42.666667 68.266667-89.6 119.466667-132.266667 55.466667-51.2 123.733333-98.133333 204.8-149.333333 0 0 119.466667 72.533333 204.8 149.333333 51.2 46.933333 89.6 89.6 119.466667 132.266667 17.066667 25.6 34.133333 55.466667 42.666666 81.066666 12.8 29.866667 17.066667 59.733333 17.066667 89.6 0 29.866667-4.266667 64-17.066667 89.6z"  horiz-adv-x="1024" />

    
    <glyph glyph-name="xuanzhong1" unicode="&#58908;" d="M864-32H160c-35.2 0-64 28.8-64 64V736c0 35.2 28.8 64 64 64h704c35.2 0 64-28.8 64-64v-704c0-35.2-28.8-64-64-64zM864-64H160c-52.9 0-96 43.1-96 96V736c0 52.9 43.1 96 96 96h704c52.9 0 96-43.1 96-96v-704c0-52.9-43.1-96-96-96zM160 768c-17.6 0-32-14.4-32-32v-704c0-17.6 14.4-32 32-32h704c17.6 0 32 14.4 32 32V736c0 17.6-14.4 32-32 32H160zM738 587.6L422.3 271.9 286 408.2l-45.3-45.3L377 226.6l-1-1 45.3-45.2 362 362z"  horiz-adv-x="1024" />

    
    <glyph glyph-name="jiantou" unicode="&#59471;" d="M444.081633 206.367347c-5.22449 0-10.44898 2.089796-14.628572 6.269388-8.359184 8.359184-8.359184 21.420408 0 29.779592l156.734694 156.734693c8.359184 8.359184 21.420408 8.359184 29.779592 0 8.359184-8.359184 8.359184-21.420408 0-29.779591l-156.734694-156.734694c-4.702041-4.179592-9.926531-6.269388-15.15102-6.269388zM600.816327 363.102041c-5.22449 0-10.44898 2.089796-14.628572 6.269388l-156.734694 156.734693c-8.359184 8.359184-8.359184 21.420408 0 29.779592 8.359184 8.359184 21.420408 8.359184 29.779592 0l156.734694-156.734694c8.359184-8.359184 8.359184-21.420408 0-29.779591-4.702041-4.179592-9.926531-6.269388-15.15102-6.269388zM512-33.959184c-230.4 0-417.959184 187.559184-417.959184 417.959184s187.559184 417.959184 417.959184 417.959184 417.959184-187.559184 417.959184-417.959184-187.559184-417.959184-417.959184-417.959184z m0 794.122449c-207.412245 0-376.163265-168.75102-376.163265-376.163265s168.75102-376.163265 376.163265-376.163265 376.163265 168.75102 376.163265 376.163265-168.75102 376.163265-376.163265 376.163265z"  horiz-adv-x="1024" />

    


  </font>
</defs>
</svg>
